<mxfile host="Electron" modified="2024-03-26T01:22:41.805Z" agent="Mozilla/5.0 (Windows NT 10.0; Win64; x64) AppleWebKit/537.36 (KHTML, like Gecko) draw.io/24.1.0 Chrome/120.0.6099.109 Electron/28.1.0 Safari/537.36" etag="zcTeyPPlB7dxKw19iWBl" version="24.1.0" type="device" pages="5">
  <diagram name="Use Case Diagram" id="HRDbC0v-QL58-g_o1da6">
    <mxGraphModel dx="1418" dy="828" grid="1" gridSize="10" guides="1" tooltips="1" connect="1" arrows="1" fold="1" page="1" pageScale="1" pageWidth="850" pageHeight="1100" math="0" shadow="0">
      <root>
        <mxCell id="0" />
        <mxCell id="1" parent="0" />
        <mxCell id="lq5DNbu_8mVxC_UeuH79-1" value="&lt;p style=&quot;line-height:1.38;margin-top:0pt;margin-bottom:0pt;&quot; dir=&quot;ltr&quot;&gt;&lt;/p&gt;&lt;p style=&quot;line-height:1.38;margin-top:0pt;margin-bottom:0pt;&quot; dir=&quot;ltr&quot;&gt;&lt;/p&gt;&lt;div&gt;&lt;/div&gt;&lt;span id=&quot;docs-internal-guid-705e0976-7fff-efcc-c61b-261b7dbb9d03&quot;&gt;&lt;font color=&quot;#000000&quot;&gt;&lt;span style=&quot;font-size: 11pt; font-family: Arial, sans-serif; background-color: transparent; font-weight: 700; font-variant-numeric: normal; font-variant-east-asian: normal; font-variant-alternates: normal; font-variant-position: normal; vertical-align: baseline; white-space-collapse: preserve;&quot;&gt;Use Case Diagram (10 points)&lt;/span&gt;&lt;span style=&quot;font-size: 11pt; font-family: Arial, sans-serif; background-color: transparent; font-variant-numeric: normal; font-variant-east-asian: normal; font-variant-alternates: normal; font-variant-position: normal; vertical-align: baseline; white-space-collapse: preserve;&quot;&gt;: Reflect on the use cases and the associated actors of the system.&lt;/span&gt;&lt;/font&gt;&lt;/span&gt;&lt;br&gt;&lt;p style=&quot;font-size: 22px;&quot;&gt;&lt;/p&gt;&lt;font style=&quot;font-size: 22px;&quot;&gt;&lt;span id=&quot;docs-internal-guid-4736cb21-7fff-454d-ffdd-ce9de3d9f626&quot;&gt;&lt;/span&gt;&lt;/font&gt;" style="rounded=0;whiteSpace=wrap;html=1;" parent="1" vertex="1">
          <mxGeometry x="10" y="80" width="830" height="90" as="geometry" />
        </mxCell>
        <mxCell id="5bMXv3uLhK97KtnWlhL0-1" value="&lt;div&gt;User&lt;/div&gt;&lt;div&gt;&lt;br&gt;&lt;/div&gt;" style="shape=umlActor;verticalLabelPosition=bottom;verticalAlign=top;html=1;" parent="1" vertex="1">
          <mxGeometry x="40" y="482" width="110" height="190" as="geometry" />
        </mxCell>
        <mxCell id="nHeZbiyVeFCBfAyv0oCI-2" value="Login" style="ellipse;whiteSpace=wrap;html=1;" parent="1" vertex="1">
          <mxGeometry x="260" y="290" width="120" height="80" as="geometry" />
        </mxCell>
        <mxCell id="nHeZbiyVeFCBfAyv0oCI-5" value="&lt;div style=&quot;&quot;&gt;&lt;span style=&quot;background-color: initial;&quot;&gt;Update Details&lt;/span&gt;&lt;/div&gt;&lt;div style=&quot;&quot;&gt;&lt;br&gt;&lt;/div&gt;" style="ellipse;whiteSpace=wrap;html=1;align=center;" parent="1" vertex="1">
          <mxGeometry x="450" y="295" width="120" height="70" as="geometry" />
        </mxCell>
        <mxCell id="nHeZbiyVeFCBfAyv0oCI-6" value="Update Nick Name&lt;div&gt;Update Email&lt;/div&gt;&lt;div&gt;Update Birthday&lt;/div&gt;" style="ellipse;whiteSpace=wrap;html=1;" parent="1" vertex="1">
          <mxGeometry x="450" y="422" width="120" height="80" as="geometry" />
        </mxCell>
        <mxCell id="nHeZbiyVeFCBfAyv0oCI-7" value="Follow Users" style="ellipse;whiteSpace=wrap;html=1;" parent="1" vertex="1">
          <mxGeometry x="260" y="390" width="120" height="80" as="geometry" />
        </mxCell>
        <mxCell id="nHeZbiyVeFCBfAyv0oCI-8" value="Unfollow Users" style="ellipse;whiteSpace=wrap;html=1;" parent="1" vertex="1">
          <mxGeometry x="260" y="510" width="120" height="80" as="geometry" />
        </mxCell>
        <mxCell id="nHeZbiyVeFCBfAyv0oCI-13" value="" style="endArrow=classic;html=1;rounded=0;entryX=0;entryY=0.5;entryDx=0;entryDy=0;exitX=1;exitY=0.3333333333333333;exitDx=0;exitDy=0;exitPerimeter=0;" parent="1" source="5bMXv3uLhK97KtnWlhL0-1" target="nHeZbiyVeFCBfAyv0oCI-2" edge="1">
          <mxGeometry width="50" height="50" relative="1" as="geometry">
            <mxPoint x="150" y="502" as="sourcePoint" />
            <mxPoint x="200" y="452" as="targetPoint" />
          </mxGeometry>
        </mxCell>
        <mxCell id="nHeZbiyVeFCBfAyv0oCI-16" value="" style="endArrow=classic;html=1;rounded=0;exitX=1;exitY=0.3333333333333333;exitDx=0;exitDy=0;exitPerimeter=0;" parent="1" source="5bMXv3uLhK97KtnWlhL0-1" target="nHeZbiyVeFCBfAyv0oCI-7" edge="1">
          <mxGeometry width="50" height="50" relative="1" as="geometry">
            <mxPoint x="160" y="672" as="sourcePoint" />
            <mxPoint x="210" y="622" as="targetPoint" />
          </mxGeometry>
        </mxCell>
        <mxCell id="nHeZbiyVeFCBfAyv0oCI-17" value="" style="endArrow=classic;html=1;rounded=0;entryX=0;entryY=0.5;entryDx=0;entryDy=0;exitX=1;exitY=0.3333333333333333;exitDx=0;exitDy=0;exitPerimeter=0;" parent="1" source="5bMXv3uLhK97KtnWlhL0-1" target="nHeZbiyVeFCBfAyv0oCI-8" edge="1">
          <mxGeometry width="50" height="50" relative="1" as="geometry">
            <mxPoint x="100" y="672" as="sourcePoint" />
            <mxPoint x="150" y="622" as="targetPoint" />
          </mxGeometry>
        </mxCell>
        <mxCell id="nHeZbiyVeFCBfAyv0oCI-19" value="Include" style="endArrow=open;endSize=12;dashed=1;html=1;rounded=0;entryX=0;entryY=0.5;entryDx=0;entryDy=0;exitX=1.04;exitY=0.505;exitDx=0;exitDy=0;exitPerimeter=0;" parent="1" source="nHeZbiyVeFCBfAyv0oCI-2" target="nHeZbiyVeFCBfAyv0oCI-5" edge="1">
          <mxGeometry width="160" relative="1" as="geometry">
            <mxPoint x="400" y="390" as="sourcePoint" />
            <mxPoint x="560" y="390" as="targetPoint" />
            <mxPoint as="offset" />
          </mxGeometry>
        </mxCell>
        <mxCell id="nHeZbiyVeFCBfAyv0oCI-20" value="Extends" style="endArrow=block;endSize=16;endFill=0;html=1;rounded=0;entryX=0.5;entryY=1;entryDx=0;entryDy=0;" parent="1" source="nHeZbiyVeFCBfAyv0oCI-6" target="nHeZbiyVeFCBfAyv0oCI-5" edge="1">
          <mxGeometry x="-0.3333" width="160" relative="1" as="geometry">
            <mxPoint x="420" y="550" as="sourcePoint" />
            <mxPoint x="580" y="550" as="targetPoint" />
            <mxPoint as="offset" />
          </mxGeometry>
        </mxCell>
        <mxCell id="zNv88BseD1n7ouaVDyPV-1" value="&lt;font color=&quot;#000000&quot; style=&quot;font-size: 19px;&quot;&gt;Hector Napier &lt;br&gt;Final Project OOAD Case Study 1 (50pts)&lt;/font&gt;" style="rounded=0;whiteSpace=wrap;html=1;" parent="1" vertex="1">
          <mxGeometry x="185" y="10" width="430" height="60" as="geometry" />
        </mxCell>
        <mxCell id="j5uEzlYgjDCo3Zua__Tq-3" value="Create Post" style="ellipse;whiteSpace=wrap;html=1;" parent="1" vertex="1">
          <mxGeometry x="260" y="600" width="120" height="80" as="geometry" />
        </mxCell>
        <mxCell id="j5uEzlYgjDCo3Zua__Tq-4" value="" style="endArrow=classic;html=1;rounded=0;entryX=0.017;entryY=0.3;entryDx=0;entryDy=0;entryPerimeter=0;exitX=0.991;exitY=0.332;exitDx=0;exitDy=0;exitPerimeter=0;" parent="1" source="5bMXv3uLhK97KtnWlhL0-1" target="j5uEzlYgjDCo3Zua__Tq-3" edge="1">
          <mxGeometry width="50" height="50" relative="1" as="geometry">
            <mxPoint x="150" y="540" as="sourcePoint" />
            <mxPoint x="398.84000000000003" y="778.14" as="targetPoint" />
          </mxGeometry>
        </mxCell>
        <mxCell id="j5uEzlYgjDCo3Zua__Tq-6" value="Delete Post" style="ellipse;whiteSpace=wrap;html=1;" parent="1" vertex="1">
          <mxGeometry x="430" y="600" width="120" height="80" as="geometry" />
        </mxCell>
        <mxCell id="j5uEzlYgjDCo3Zua__Tq-8" value="Include" style="endArrow=block;endSize=16;endFill=0;html=1;rounded=0;exitX=0.5;exitY=1;exitDx=0;exitDy=0;entryX=0.5;entryY=0;entryDx=0;entryDy=0;" parent="1" source="nHeZbiyVeFCBfAyv0oCI-7" target="nHeZbiyVeFCBfAyv0oCI-8" edge="1">
          <mxGeometry x="-0.341" width="160" relative="1" as="geometry">
            <mxPoint x="560" y="786" as="sourcePoint" />
            <mxPoint x="460" y="700" as="targetPoint" />
            <mxPoint as="offset" />
            <Array as="points" />
          </mxGeometry>
        </mxCell>
        <mxCell id="j5uEzlYgjDCo3Zua__Tq-9" value="Like Comment" style="ellipse;whiteSpace=wrap;html=1;" parent="1" vertex="1">
          <mxGeometry x="260" y="700" width="120" height="80" as="geometry" />
        </mxCell>
        <mxCell id="j5uEzlYgjDCo3Zua__Tq-10" value="Comment On post" style="ellipse;whiteSpace=wrap;html=1;" parent="1" vertex="1">
          <mxGeometry x="260" y="800" width="120" height="80" as="geometry" />
        </mxCell>
        <mxCell id="j5uEzlYgjDCo3Zua__Tq-11" value="Foward Post" style="ellipse;whiteSpace=wrap;html=1;" parent="1" vertex="1">
          <mxGeometry x="260" y="900" width="120" height="80" as="geometry" />
        </mxCell>
        <mxCell id="j5uEzlYgjDCo3Zua__Tq-12" value="Include" style="endArrow=block;endSize=16;endFill=0;html=1;rounded=0;exitX=1;exitY=0.5;exitDx=0;exitDy=0;entryX=0;entryY=0.5;entryDx=0;entryDy=0;" parent="1" source="j5uEzlYgjDCo3Zua__Tq-3" target="j5uEzlYgjDCo3Zua__Tq-6" edge="1">
          <mxGeometry x="-0.341" width="160" relative="1" as="geometry">
            <mxPoint x="410" y="692" as="sourcePoint" />
            <mxPoint x="410" y="732" as="targetPoint" />
            <mxPoint as="offset" />
            <Array as="points" />
          </mxGeometry>
        </mxCell>
        <mxCell id="j5uEzlYgjDCo3Zua__Tq-13" value="" style="endArrow=classic;html=1;rounded=0;entryX=0.017;entryY=0.3;entryDx=0;entryDy=0;entryPerimeter=0;exitX=1;exitY=0.3333333333333333;exitDx=0;exitDy=0;exitPerimeter=0;" parent="1" source="5bMXv3uLhK97KtnWlhL0-1" edge="1">
          <mxGeometry width="50" height="50" relative="1" as="geometry">
            <mxPoint x="150" y="640" as="sourcePoint" />
            <mxPoint x="263" y="699" as="targetPoint" />
          </mxGeometry>
        </mxCell>
        <mxCell id="j5uEzlYgjDCo3Zua__Tq-14" value="" style="endArrow=classic;html=1;rounded=0;entryX=0.017;entryY=0.3;entryDx=0;entryDy=0;entryPerimeter=0;exitX=1;exitY=0.3333333333333333;exitDx=0;exitDy=0;exitPerimeter=0;" parent="1" source="5bMXv3uLhK97KtnWlhL0-1" edge="1">
          <mxGeometry width="50" height="50" relative="1" as="geometry">
            <mxPoint x="147" y="721" as="sourcePoint" />
            <mxPoint x="260" y="780" as="targetPoint" />
          </mxGeometry>
        </mxCell>
        <mxCell id="j5uEzlYgjDCo3Zua__Tq-15" value="" style="endArrow=classic;html=1;rounded=0;entryX=0.017;entryY=0.3;entryDx=0;entryDy=0;entryPerimeter=0;exitX=1;exitY=0.3333333333333333;exitDx=0;exitDy=0;exitPerimeter=0;" parent="1" source="5bMXv3uLhK97KtnWlhL0-1" edge="1">
          <mxGeometry width="50" height="50" relative="1" as="geometry">
            <mxPoint x="147" y="840" as="sourcePoint" />
            <mxPoint x="260" y="899" as="targetPoint" />
          </mxGeometry>
        </mxCell>
        <mxCell id="j5uEzlYgjDCo3Zua__Tq-16" value="&lt;span id=&quot;docs-internal-guid-8cb2599f-7fff-848b-6761-51fdcf957c3d&quot;&gt;&lt;span style=&quot;font-family: Arial, sans-serif; background-color: transparent; font-weight: 700; font-variant-numeric: normal; font-variant-east-asian: normal; font-variant-alternates: normal; font-variant-position: normal; vertical-align: baseline; white-space-collapse: preserve;&quot;&gt;&lt;font color=&quot;#050505&quot; style=&quot;font-size: 11px;&quot;&gt;Social Media Application: User Case Diagram&lt;/font&gt;&lt;/span&gt;&lt;/span&gt;" style="shape=umlFrame;whiteSpace=wrap;html=1;pointerEvents=0;width=200;height=35;" parent="1" vertex="1">
          <mxGeometry x="200" y="245" width="400" height="750" as="geometry" />
        </mxCell>
        <mxCell id="50VH2wMXO3GuvxCSRpiy-1" value="System" style="text;html=1;align=center;verticalAlign=middle;resizable=0;points=[];autosize=1;strokeColor=none;fillColor=none;fontSize=21;" vertex="1" parent="1">
          <mxGeometry x="640" y="442" width="90" height="40" as="geometry" />
        </mxCell>
      </root>
    </mxGraphModel>
  </diagram>
  <diagram id="yTS-zGicEhvubGqiiFgA" name="Activity Diagram">
    <mxGraphModel dx="1418" dy="828" grid="1" gridSize="10" guides="1" tooltips="1" connect="1" arrows="1" fold="1" page="1" pageScale="1" pageWidth="850" pageHeight="1100" math="0" shadow="0">
      <root>
        <mxCell id="0" />
        <mxCell id="1" parent="0" />
        <mxCell id="_Ud6uV08nvZzO5Yvaj7D-1" value="&lt;p style=&quot;line-height:1.38;margin-top:0pt;margin-bottom:0pt;&quot; dir=&quot;ltr&quot;&gt;&lt;/p&gt;&lt;p style=&quot;line-height:1.38;margin-top:0pt;margin-bottom:0pt;&quot; dir=&quot;ltr&quot;&gt;&lt;/p&gt;&lt;div&gt;&lt;/div&gt;&lt;p style=&quot;line-height:1.38;margin-top:0pt;margin-bottom:0pt;&quot; dir=&quot;ltr&quot;&gt;&lt;/p&gt;&lt;div&gt;&lt;/div&gt;&lt;span style=&quot;font-size: 16px;&quot; id=&quot;docs-internal-guid-476f0666-7fff-e421-7e1c-d5bcd231eda9&quot;&gt;&lt;font color=&quot;#080808&quot; style=&quot;font-size: 16px;&quot;&gt;&lt;span style=&quot;font-family: Arial, sans-serif; background-color: transparent; font-weight: 700; font-variant-numeric: normal; font-variant-east-asian: normal; font-variant-alternates: normal; font-variant-position: normal; vertical-align: baseline; white-space-collapse: preserve;&quot;&gt;Activity Diagram (10 points)&lt;/span&gt;&lt;span style=&quot;font-family: Arial, sans-serif; background-color: transparent; font-variant-numeric: normal; font-variant-east-asian: normal; font-variant-alternates: normal; font-variant-position: normal; vertical-align: baseline; white-space-collapse: preserve;&quot;&gt;: Illustrate the sequence of &lt;/span&gt;&lt;/font&gt;&lt;/span&gt;&lt;div style=&quot;font-size: 16px;&quot;&gt;&lt;font color=&quot;#080808&quot; style=&quot;font-size: 16px;&quot;&gt;&lt;span style=&quot;font-family: Arial, sans-serif; background-color: transparent; font-variant-numeric: normal; font-variant-east-asian: normal; font-variant-alternates: normal; font-variant-position: normal; vertical-align: baseline; white-space-collapse: preserve;&quot;&gt;activities for each use case.&lt;/span&gt;&lt;/font&gt;&lt;br&gt;&lt;p style=&quot;font-size: 16px;&quot;&gt;&lt;/p&gt;&lt;span style=&quot;font-size: 16px;&quot; id=&quot;docs-internal-guid-7112bc8c-7fff-d57e-7e25-45a56f821945&quot;&gt;&lt;/span&gt;&lt;/div&gt;" style="rounded=0;whiteSpace=wrap;html=1;" parent="1" vertex="1">
          <mxGeometry x="200" y="40" width="450" height="90" as="geometry" />
        </mxCell>
        <mxCell id="d6ZAwayhKA5jPn56wRFN-31" style="edgeStyle=orthogonalEdgeStyle;rounded=0;orthogonalLoop=1;jettySize=auto;html=1;" parent="1" source="hPD5M8SMGnqX-7s_gUQp-1" edge="1">
          <mxGeometry relative="1" as="geometry">
            <mxPoint x="130" y="300" as="targetPoint" />
          </mxGeometry>
        </mxCell>
        <mxCell id="hPD5M8SMGnqX-7s_gUQp-1" value="" style="ellipse;html=1;shape=startState;fillColor=#000000;strokeColor=#ff0000;" parent="1" vertex="1">
          <mxGeometry x="40" y="285" width="30" height="30" as="geometry" />
        </mxCell>
        <mxCell id="d6ZAwayhKA5jPn56wRFN-2" value="Login" style="rounded=1;whiteSpace=wrap;html=1;" parent="1" vertex="1">
          <mxGeometry x="140" y="255" width="120" height="60" as="geometry" />
        </mxCell>
        <mxCell id="d6ZAwayhKA5jPn56wRFN-3" value="User Found" style="rounded=1;whiteSpace=wrap;html=1;" parent="1" vertex="1">
          <mxGeometry x="345" y="320" width="120" height="30" as="geometry" />
        </mxCell>
        <mxCell id="d6ZAwayhKA5jPn56wRFN-4" value="User Not Found" style="rounded=1;whiteSpace=wrap;html=1;" parent="1" vertex="1">
          <mxGeometry x="370" y="140" width="80" height="40" as="geometry" />
        </mxCell>
        <mxCell id="d6ZAwayhKA5jPn56wRFN-5" value="Update Account Details" style="rounded=1;whiteSpace=wrap;html=1;" parent="1" vertex="1">
          <mxGeometry x="660" y="380" width="120" height="60" as="geometry" />
        </mxCell>
        <mxCell id="d6ZAwayhKA5jPn56wRFN-6" value="Follow Users" style="rounded=1;whiteSpace=wrap;html=1;" parent="1" vertex="1">
          <mxGeometry x="45" y="460" width="120" height="60" as="geometry" />
        </mxCell>
        <mxCell id="d6ZAwayhKA5jPn56wRFN-7" value="" style="ellipse;html=1;shape=endState;fillColor=#000000;strokeColor=#ff0000;" parent="1" vertex="1">
          <mxGeometry x="790" y="1050" width="30" height="30" as="geometry" />
        </mxCell>
        <mxCell id="d6ZAwayhKA5jPn56wRFN-30" value="" style="endArrow=open;endFill=1;endSize=12;html=1;rounded=0;entryX=0;entryY=0.5;entryDx=0;entryDy=0;exitX=1.003;exitY=0.406;exitDx=0;exitDy=0;exitPerimeter=0;" parent="1" source="d6ZAwayhKA5jPn56wRFN-2" target="d6ZAwayhKA5jPn56wRFN-48" edge="1">
          <mxGeometry width="160" relative="1" as="geometry">
            <mxPoint x="261.1999999999998" y="287.51" as="sourcePoint" />
            <mxPoint x="385" y="292.4899999999999" as="targetPoint" />
            <Array as="points" />
          </mxGeometry>
        </mxCell>
        <mxCell id="d6ZAwayhKA5jPn56wRFN-32" value="" style="endArrow=open;endFill=1;endSize=12;html=1;rounded=0;entryX=0.5;entryY=0;entryDx=0;entryDy=0;" parent="1" target="43f0WN8mzrDbMwz-3VTG-79" edge="1">
          <mxGeometry width="160" relative="1" as="geometry">
            <mxPoint x="399.83000000000004" y="350" as="sourcePoint" />
            <mxPoint x="400" y="380" as="targetPoint" />
          </mxGeometry>
        </mxCell>
        <mxCell id="d6ZAwayhKA5jPn56wRFN-33" value="" style="endArrow=open;endFill=1;endSize=12;html=1;rounded=0;entryX=0.433;entryY=1.01;entryDx=0;entryDy=0;exitX=0.5;exitY=0;exitDx=0;exitDy=0;entryPerimeter=0;" parent="1" source="d6ZAwayhKA5jPn56wRFN-48" target="d6ZAwayhKA5jPn56wRFN-4" edge="1">
          <mxGeometry width="160" relative="1" as="geometry">
            <mxPoint x="580" y="410" as="sourcePoint" />
            <mxPoint x="599.9999999999998" y="450" as="targetPoint" />
            <Array as="points" />
          </mxGeometry>
        </mxCell>
        <mxCell id="d6ZAwayhKA5jPn56wRFN-34" value="" style="endArrow=open;endFill=1;endSize=12;html=1;rounded=0;entryX=0;entryY=0.5;entryDx=0;entryDy=0;exitX=1;exitY=0.5;exitDx=0;exitDy=0;" parent="1" source="d6ZAwayhKA5jPn56wRFN-23" target="43f0WN8mzrDbMwz-3VTG-21" edge="1">
          <mxGeometry width="160" relative="1" as="geometry">
            <mxPoint x="199.70999999999998" y="485" as="sourcePoint" />
            <mxPoint x="280" y="465" as="targetPoint" />
          </mxGeometry>
        </mxCell>
        <mxCell id="d6ZAwayhKA5jPn56wRFN-39" value="" style="endArrow=open;endFill=1;endSize=12;html=1;rounded=0;exitX=1;exitY=0.5;exitDx=0;exitDy=0;entryX=0;entryY=0.5;entryDx=0;entryDy=0;" parent="1" source="43f0WN8mzrDbMwz-3VTG-36" target="d6ZAwayhKA5jPn56wRFN-7" edge="1">
          <mxGeometry width="160" relative="1" as="geometry">
            <mxPoint x="459.66" y="755" as="sourcePoint" />
            <mxPoint x="460" y="725" as="targetPoint" />
          </mxGeometry>
        </mxCell>
        <mxCell id="d6ZAwayhKA5jPn56wRFN-40" value="&lt;font style=&quot;font-size: 8px;&quot;&gt;Check user login&lt;/font&gt;" style="text;html=1;align=center;verticalAlign=middle;resizable=0;points=[];autosize=1;strokeColor=none;fillColor=none;" parent="1" vertex="1">
          <mxGeometry x="275" y="255" width="80" height="30" as="geometry" />
        </mxCell>
        <mxCell id="d6ZAwayhKA5jPn56wRFN-42" value="&lt;font style=&quot;font-size: 8px;&quot;&gt;User Not Found&lt;/font&gt;" style="text;html=1;align=center;verticalAlign=middle;resizable=0;points=[];autosize=1;strokeColor=none;fillColor=none;rotation=-90;" parent="1" vertex="1">
          <mxGeometry x="345" y="210" width="80" height="30" as="geometry" />
        </mxCell>
        <mxCell id="d6ZAwayhKA5jPn56wRFN-44" value="[Return to Login]" style="text;html=1;align=center;verticalAlign=middle;resizable=0;points=[];autosize=1;strokeColor=none;fillColor=none;" parent="1" vertex="1">
          <mxGeometry x="235" y="160" width="110" height="30" as="geometry" />
        </mxCell>
        <mxCell id="d6ZAwayhKA5jPn56wRFN-48" value="" style="rhombus;whiteSpace=wrap;html=1;" parent="1" vertex="1">
          <mxGeometry x="385" y="260" width="40" height="40" as="geometry" />
        </mxCell>
        <mxCell id="d6ZAwayhKA5jPn56wRFN-23" value="" style="rhombus;whiteSpace=wrap;html=1;" parent="1" vertex="1">
          <mxGeometry x="215" y="470" width="40" height="40" as="geometry" />
        </mxCell>
        <mxCell id="43f0WN8mzrDbMwz-3VTG-8" value="" style="endArrow=open;endFill=1;endSize=12;html=1;rounded=0;exitX=0.5;exitY=1;exitDx=0;exitDy=0;entryX=0.497;entryY=-0.08;entryDx=0;entryDy=0;entryPerimeter=0;" parent="1" source="d6ZAwayhKA5jPn56wRFN-48" target="d6ZAwayhKA5jPn56wRFN-3" edge="1">
          <mxGeometry width="160" relative="1" as="geometry">
            <mxPoint x="440.00000000000006" y="285" as="sourcePoint" />
            <mxPoint x="400" y="310" as="targetPoint" />
          </mxGeometry>
        </mxCell>
        <mxCell id="43f0WN8mzrDbMwz-3VTG-10" value="Update Nick Name&amp;nbsp;" style="rounded=1;whiteSpace=wrap;html=1;" parent="1" vertex="1">
          <mxGeometry x="680" y="475" width="80" height="40" as="geometry" />
        </mxCell>
        <mxCell id="43f0WN8mzrDbMwz-3VTG-11" value="Update Email" style="rounded=1;whiteSpace=wrap;html=1;" parent="1" vertex="1">
          <mxGeometry x="680" y="535" width="80" height="40" as="geometry" />
        </mxCell>
        <mxCell id="43f0WN8mzrDbMwz-3VTG-12" value="Update Birthday" style="rounded=1;whiteSpace=wrap;html=1;" parent="1" vertex="1">
          <mxGeometry x="680" y="595" width="80" height="40" as="geometry" />
        </mxCell>
        <mxCell id="43f0WN8mzrDbMwz-3VTG-13" value="" style="endArrow=open;endFill=1;endSize=12;html=1;rounded=0;exitX=0.5;exitY=1;exitDx=0;exitDy=0;entryX=0.5;entryY=0;entryDx=0;entryDy=0;" parent="1" source="43f0WN8mzrDbMwz-3VTG-11" target="43f0WN8mzrDbMwz-3VTG-12" edge="1">
          <mxGeometry width="160" relative="1" as="geometry">
            <mxPoint x="885" y="635" as="sourcePoint" />
            <mxPoint x="880" y="425" as="targetPoint" />
            <Array as="points" />
          </mxGeometry>
        </mxCell>
        <mxCell id="43f0WN8mzrDbMwz-3VTG-14" value="" style="rhombus;whiteSpace=wrap;html=1;" parent="1" vertex="1">
          <mxGeometry x="700" y="690" width="40" height="40" as="geometry" />
        </mxCell>
        <mxCell id="43f0WN8mzrDbMwz-3VTG-17" value="" style="endArrow=open;endFill=1;endSize=12;html=1;rounded=0;entryX=0.5;entryY=0;entryDx=0;entryDy=0;exitX=0.5;exitY=1;exitDx=0;exitDy=0;" parent="1" source="43f0WN8mzrDbMwz-3VTG-12" target="43f0WN8mzrDbMwz-3VTG-14" edge="1">
          <mxGeometry width="160" relative="1" as="geometry">
            <mxPoint x="675" y="514" as="sourcePoint" />
            <mxPoint x="746" y="515" as="targetPoint" />
            <Array as="points" />
          </mxGeometry>
        </mxCell>
        <mxCell id="43f0WN8mzrDbMwz-3VTG-48" value="" style="edgeStyle=orthogonalEdgeStyle;rounded=0;orthogonalLoop=1;jettySize=auto;html=1;" parent="1" source="43f0WN8mzrDbMwz-3VTG-18" target="43f0WN8mzrDbMwz-3VTG-20" edge="1">
          <mxGeometry relative="1" as="geometry" />
        </mxCell>
        <mxCell id="43f0WN8mzrDbMwz-3VTG-18" value="Unfollow Users" style="rounded=1;whiteSpace=wrap;html=1;" parent="1" vertex="1">
          <mxGeometry x="45" y="555" width="120" height="60" as="geometry" />
        </mxCell>
        <mxCell id="43f0WN8mzrDbMwz-3VTG-20" value="Follow Users" style="rounded=1;whiteSpace=wrap;html=1;" parent="1" vertex="1">
          <mxGeometry x="45" y="645" width="120" height="60" as="geometry" />
        </mxCell>
        <mxCell id="43f0WN8mzrDbMwz-3VTG-21" value="Create Post" style="rounded=1;whiteSpace=wrap;html=1;" parent="1" vertex="1">
          <mxGeometry x="352.5" y="510" width="120" height="40" as="geometry" />
        </mxCell>
        <mxCell id="43f0WN8mzrDbMwz-3VTG-22" value="Delete Post" style="rounded=1;whiteSpace=wrap;html=1;" parent="1" vertex="1">
          <mxGeometry x="352.5" y="580" width="120" height="30" as="geometry" />
        </mxCell>
        <mxCell id="43f0WN8mzrDbMwz-3VTG-23" value="Like Other Users Posts" style="rounded=1;whiteSpace=wrap;html=1;" parent="1" vertex="1">
          <mxGeometry x="352.5" y="640" width="120" height="30" as="geometry" />
        </mxCell>
        <mxCell id="43f0WN8mzrDbMwz-3VTG-24" value="Comment Other Users Post" style="rounded=1;whiteSpace=wrap;html=1;" parent="1" vertex="1">
          <mxGeometry x="352.5" y="710" width="120" height="30" as="geometry" />
        </mxCell>
        <mxCell id="43f0WN8mzrDbMwz-3VTG-25" value="Forward Other Users Post" style="rounded=1;whiteSpace=wrap;html=1;" parent="1" vertex="1">
          <mxGeometry x="352.5" y="780" width="120" height="30" as="geometry" />
        </mxCell>
        <mxCell id="43f0WN8mzrDbMwz-3VTG-33" value="" style="rhombus;whiteSpace=wrap;html=1;" parent="1" vertex="1">
          <mxGeometry x="85" y="735" width="40" height="40" as="geometry" />
        </mxCell>
        <mxCell id="43f0WN8mzrDbMwz-3VTG-34" value="" style="rhombus;whiteSpace=wrap;html=1;" parent="1" vertex="1">
          <mxGeometry x="215" y="580" width="40" height="40" as="geometry" />
        </mxCell>
        <mxCell id="43f0WN8mzrDbMwz-3VTG-35" value="" style="endArrow=open;endFill=1;endSize=12;html=1;rounded=0;exitX=0.5;exitY=1;exitDx=0;exitDy=0;" parent="1" source="43f0WN8mzrDbMwz-3VTG-34" edge="1">
          <mxGeometry width="160" relative="1" as="geometry">
            <mxPoint x="235" y="670" as="sourcePoint" />
            <mxPoint x="235" y="650" as="targetPoint" />
          </mxGeometry>
        </mxCell>
        <mxCell id="43f0WN8mzrDbMwz-3VTG-36" value="Logout" style="rounded=1;whiteSpace=wrap;html=1;" parent="1" vertex="1">
          <mxGeometry x="660" y="1045" width="80" height="40" as="geometry" />
        </mxCell>
        <mxCell id="43f0WN8mzrDbMwz-3VTG-38" value="" style="endArrow=open;endFill=1;endSize=12;html=1;rounded=0;exitX=0;exitY=0.5;exitDx=0;exitDy=0;entryX=1;entryY=0.5;entryDx=0;entryDy=0;" parent="1" source="d6ZAwayhKA5jPn56wRFN-23" target="d6ZAwayhKA5jPn56wRFN-6" edge="1">
          <mxGeometry width="160" relative="1" as="geometry">
            <mxPoint x="35" y="410" as="sourcePoint" />
            <mxPoint x="35" y="440" as="targetPoint" />
          </mxGeometry>
        </mxCell>
        <mxCell id="43f0WN8mzrDbMwz-3VTG-39" value="" style="endArrow=open;endFill=1;endSize=12;html=1;rounded=0;" parent="1" edge="1">
          <mxGeometry width="160" relative="1" as="geometry">
            <mxPoint x="104.71000000000004" y="525" as="sourcePoint" />
            <mxPoint x="104.71000000000004" y="555" as="targetPoint" />
          </mxGeometry>
        </mxCell>
        <mxCell id="43f0WN8mzrDbMwz-3VTG-40" value="" style="endArrow=open;endFill=1;endSize=12;html=1;rounded=0;" parent="1" edge="1">
          <mxGeometry width="160" relative="1" as="geometry">
            <mxPoint x="104.71000000000004" y="615" as="sourcePoint" />
            <mxPoint x="104.71000000000004" y="645" as="targetPoint" />
            <Array as="points">
              <mxPoint x="105.05000000000001" y="645" />
            </Array>
          </mxGeometry>
        </mxCell>
        <mxCell id="43f0WN8mzrDbMwz-3VTG-41" value="" style="endArrow=open;endFill=1;endSize=12;html=1;rounded=0;" parent="1" edge="1">
          <mxGeometry width="160" relative="1" as="geometry">
            <mxPoint x="104.65999999999997" y="705" as="sourcePoint" />
            <mxPoint x="104.65999999999997" y="735" as="targetPoint" />
          </mxGeometry>
        </mxCell>
        <mxCell id="43f0WN8mzrDbMwz-3VTG-42" value="" style="endArrow=open;endFill=1;endSize=12;html=1;rounded=0;exitX=1;exitY=0.5;exitDx=0;exitDy=0;" parent="1" edge="1">
          <mxGeometry width="160" relative="1" as="geometry">
            <mxPoint x="125" y="755" as="sourcePoint" />
            <mxPoint x="165" y="755" as="targetPoint" />
          </mxGeometry>
        </mxCell>
        <mxCell id="43f0WN8mzrDbMwz-3VTG-43" value="B" style="ellipse;" parent="1" vertex="1">
          <mxGeometry x="165" y="740" width="30" height="30" as="geometry" />
        </mxCell>
        <mxCell id="43f0WN8mzrDbMwz-3VTG-45" value="A" style="ellipse;" parent="1" vertex="1">
          <mxGeometry x="590" y="970" width="30" height="30" as="geometry" />
        </mxCell>
        <mxCell id="43f0WN8mzrDbMwz-3VTG-46" value="" style="endArrow=open;endFill=1;endSize=12;html=1;rounded=0;exitX=0;exitY=0.5;exitDx=0;exitDy=0;entryX=0.5;entryY=0;entryDx=0;entryDy=0;" parent="1" source="d6ZAwayhKA5jPn56wRFN-4" target="d6ZAwayhKA5jPn56wRFN-2" edge="1">
          <mxGeometry width="160" relative="1" as="geometry">
            <mxPoint x="314.65999999999997" y="210" as="sourcePoint" />
            <mxPoint x="160" y="190" as="targetPoint" />
            <Array as="points">
              <mxPoint x="200" y="160" />
            </Array>
          </mxGeometry>
        </mxCell>
        <mxCell id="43f0WN8mzrDbMwz-3VTG-49" value="" style="endArrow=open;endFill=1;endSize=12;html=1;rounded=0;" parent="1" source="43f0WN8mzrDbMwz-3VTG-21" edge="1">
          <mxGeometry width="160" relative="1" as="geometry">
            <mxPoint x="412.21000000000004" y="540" as="sourcePoint" />
            <mxPoint x="412.21000000000004" y="570" as="targetPoint" />
          </mxGeometry>
        </mxCell>
        <mxCell id="43f0WN8mzrDbMwz-3VTG-50" value="" style="endArrow=open;endFill=1;endSize=12;html=1;rounded=0;" parent="1" edge="1">
          <mxGeometry width="160" relative="1" as="geometry">
            <mxPoint x="412.21000000000004" y="610" as="sourcePoint" />
            <mxPoint x="412.21000000000004" y="640" as="targetPoint" />
          </mxGeometry>
        </mxCell>
        <mxCell id="43f0WN8mzrDbMwz-3VTG-51" value="" style="endArrow=open;endFill=1;endSize=12;html=1;rounded=0;" parent="1" edge="1">
          <mxGeometry width="160" relative="1" as="geometry">
            <mxPoint x="412.21000000000004" y="670" as="sourcePoint" />
            <mxPoint x="412.21000000000004" y="700" as="targetPoint" />
          </mxGeometry>
        </mxCell>
        <mxCell id="43f0WN8mzrDbMwz-3VTG-52" value="" style="endArrow=open;endFill=1;endSize=12;html=1;rounded=0;" parent="1" edge="1">
          <mxGeometry width="160" relative="1" as="geometry">
            <mxPoint x="412.21000000000004" y="745" as="sourcePoint" />
            <mxPoint x="412.21000000000004" y="775" as="targetPoint" />
          </mxGeometry>
        </mxCell>
        <mxCell id="43f0WN8mzrDbMwz-3VTG-53" value="" style="endArrow=open;endFill=1;endSize=12;html=1;rounded=0;entryX=0.518;entryY=-0.086;entryDx=0;entryDy=0;entryPerimeter=0;exitX=0.5;exitY=1;exitDx=0;exitDy=0;" parent="1" source="d6ZAwayhKA5jPn56wRFN-23" target="43f0WN8mzrDbMwz-3VTG-34" edge="1">
          <mxGeometry width="160" relative="1" as="geometry">
            <mxPoint x="250" y="520" as="sourcePoint" />
            <mxPoint x="350" y="500" as="targetPoint" />
          </mxGeometry>
        </mxCell>
        <mxCell id="43f0WN8mzrDbMwz-3VTG-56" value="&lt;font color=&quot;#050505&quot;&gt;View List Of Followers&lt;/font&gt;" style="html=1;shape=mxgraph.infographic.ribbonSimple;notch1=20;notch2=0;align=center;verticalAlign=middle;fontSize=14;fontStyle=0;fillColor=#FFFFFF;flipH=0;spacingRight=0;spacingLeft=14;whiteSpace=wrap;" parent="1" vertex="1">
          <mxGeometry x="5" y="1050" width="170" height="40" as="geometry" />
        </mxCell>
        <mxCell id="43f0WN8mzrDbMwz-3VTG-57" value="The list of follwers can be vied at any time" style="shape=note2;boundedLbl=1;whiteSpace=wrap;html=1;size=25;verticalAlign=top;align=left;spacingLeft=5;" parent="1" vertex="1">
          <mxGeometry x="10" y="950" width="160" height="60" as="geometry" />
        </mxCell>
        <mxCell id="43f0WN8mzrDbMwz-3VTG-59" style="edgeStyle=orthogonalEdgeStyle;rounded=0;orthogonalLoop=1;jettySize=auto;html=1;entryX=0;entryY=0;entryDx=85;entryDy=0;entryPerimeter=0;dashed=1;endArrow=none;endFill=0;" parent="1" source="43f0WN8mzrDbMwz-3VTG-57" target="43f0WN8mzrDbMwz-3VTG-56" edge="1">
          <mxGeometry relative="1" as="geometry" />
        </mxCell>
        <mxCell id="43f0WN8mzrDbMwz-3VTG-60" value="" style="endArrow=open;endFill=1;endSize=12;html=1;rounded=0;exitX=1;exitY=0.5;exitDx=0;exitDy=0;" parent="1" edge="1">
          <mxGeometry width="160" relative="1" as="geometry">
            <mxPoint x="175" y="1069.71" as="sourcePoint" />
            <mxPoint x="215" y="1069.71" as="targetPoint" />
          </mxGeometry>
        </mxCell>
        <mxCell id="43f0WN8mzrDbMwz-3VTG-61" value="C" style="ellipse;" parent="1" vertex="1">
          <mxGeometry x="225" y="1055" width="30" height="30" as="geometry" />
        </mxCell>
        <mxCell id="43f0WN8mzrDbMwz-3VTG-62" value="C" style="ellipse;" parent="1" vertex="1">
          <mxGeometry x="15" y="740" width="30" height="30" as="geometry" />
        </mxCell>
        <mxCell id="43f0WN8mzrDbMwz-3VTG-63" value="" style="endArrow=open;endFill=1;endSize=12;html=1;rounded=0;exitX=0;exitY=0.5;exitDx=0;exitDy=0;entryX=1;entryY=0.5;entryDx=0;entryDy=0;" parent="1" target="43f0WN8mzrDbMwz-3VTG-62" edge="1">
          <mxGeometry width="160" relative="1" as="geometry">
            <mxPoint x="85" y="755" as="sourcePoint" />
            <mxPoint x="95" y="785" as="targetPoint" />
          </mxGeometry>
        </mxCell>
        <mxCell id="43f0WN8mzrDbMwz-3VTG-64" value="" style="rhombus;whiteSpace=wrap;html=1;" parent="1" vertex="1">
          <mxGeometry x="392.5" y="840" width="40" height="40" as="geometry" />
        </mxCell>
        <mxCell id="43f0WN8mzrDbMwz-3VTG-68" value="" style="endArrow=open;endFill=1;endSize=12;html=1;rounded=0;exitX=0;exitY=0.5;exitDx=0;exitDy=0;entryX=1;entryY=0.5;entryDx=0;entryDy=0;" parent="1" source="43f0WN8mzrDbMwz-3VTG-64" edge="1">
          <mxGeometry width="160" relative="1" as="geometry">
            <mxPoint x="362.5" y="890" as="sourcePoint" />
            <mxPoint x="352.49999999999454" y="860" as="targetPoint" />
          </mxGeometry>
        </mxCell>
        <mxCell id="43f0WN8mzrDbMwz-3VTG-69" value="" style="endArrow=open;endFill=1;endSize=12;html=1;rounded=0;" parent="1" edge="1">
          <mxGeometry width="160" relative="1" as="geometry">
            <mxPoint x="412.21000000000004" y="810" as="sourcePoint" />
            <mxPoint x="412.21000000000004" y="840" as="targetPoint" />
          </mxGeometry>
        </mxCell>
        <mxCell id="43f0WN8mzrDbMwz-3VTG-70" value="B" style="ellipse;" parent="1" vertex="1">
          <mxGeometry x="322.5" y="845" width="30" height="30" as="geometry" />
        </mxCell>
        <mxCell id="43f0WN8mzrDbMwz-3VTG-71" value="" style="endArrow=open;endFill=1;endSize=12;html=1;rounded=0;entryX=0.5;entryY=1;entryDx=0;entryDy=0;exitX=0.5;exitY=0;exitDx=0;exitDy=0;" parent="1" source="43f0WN8mzrDbMwz-3VTG-72" target="43f0WN8mzrDbMwz-3VTG-79" edge="1">
          <mxGeometry width="160" relative="1" as="geometry">
            <mxPoint x="495" y="345" as="sourcePoint" />
            <mxPoint x="240" y="615" as="targetPoint" />
          </mxGeometry>
        </mxCell>
        <mxCell id="43f0WN8mzrDbMwz-3VTG-72" value="B" style="ellipse;" parent="1" vertex="1">
          <mxGeometry x="385" y="450" width="30" height="30" as="geometry" />
        </mxCell>
        <mxCell id="43f0WN8mzrDbMwz-3VTG-73" value="&lt;font color=&quot;#050505&quot;&gt;Logout&lt;/font&gt;" style="html=1;shape=mxgraph.infographic.ribbonSimple;notch1=20;notch2=0;align=center;verticalAlign=middle;fontSize=14;fontStyle=0;fillColor=#FFFFFF;flipH=0;spacingRight=0;spacingLeft=14;whiteSpace=wrap;" parent="1" vertex="1">
          <mxGeometry x="605" y="885" width="170" height="40" as="geometry" />
        </mxCell>
        <mxCell id="43f0WN8mzrDbMwz-3VTG-74" value="" style="rhombus;whiteSpace=wrap;html=1;" parent="1" vertex="1">
          <mxGeometry x="680" y="965" width="40" height="40" as="geometry" />
        </mxCell>
        <mxCell id="43f0WN8mzrDbMwz-3VTG-75" value="" style="endArrow=open;endFill=1;endSize=12;html=1;rounded=0;exitX=0.5;exitY=1;exitDx=0;exitDy=0;" parent="1" edge="1">
          <mxGeometry width="160" relative="1" as="geometry">
            <mxPoint x="700" y="925" as="sourcePoint" />
            <mxPoint x="700" y="965" as="targetPoint" />
          </mxGeometry>
        </mxCell>
        <mxCell id="43f0WN8mzrDbMwz-3VTG-76" value="" style="endArrow=open;endFill=1;endSize=12;html=1;rounded=0;exitX=0.5;exitY=1;exitDx=0;exitDy=0;" parent="1" edge="1">
          <mxGeometry width="160" relative="1" as="geometry">
            <mxPoint x="699.66" y="1005" as="sourcePoint" />
            <mxPoint x="699.66" y="1045" as="targetPoint" />
          </mxGeometry>
        </mxCell>
        <mxCell id="43f0WN8mzrDbMwz-3VTG-77" value="" style="endArrow=open;endFill=1;endSize=12;html=1;rounded=0;entryX=0;entryY=0.5;entryDx=0;entryDy=0;exitX=1;exitY=0.5;exitDx=0;exitDy=0;" parent="1" source="43f0WN8mzrDbMwz-3VTG-45" target="43f0WN8mzrDbMwz-3VTG-74" edge="1">
          <mxGeometry width="160" relative="1" as="geometry">
            <mxPoint x="660" y="955" as="sourcePoint" />
            <mxPoint x="659.31" y="1075" as="targetPoint" />
          </mxGeometry>
        </mxCell>
        <mxCell id="43f0WN8mzrDbMwz-3VTG-78" value="A" style="ellipse;" parent="1" vertex="1">
          <mxGeometry x="220" y="660" width="30" height="30" as="geometry" />
        </mxCell>
        <mxCell id="43f0WN8mzrDbMwz-3VTG-79" value="" style="rhombus;whiteSpace=wrap;html=1;" parent="1" vertex="1">
          <mxGeometry x="380" y="385" width="40" height="40" as="geometry" />
        </mxCell>
        <mxCell id="43f0WN8mzrDbMwz-3VTG-80" value="" style="endArrow=open;endFill=1;endSize=12;html=1;rounded=0;entryX=0.5;entryY=0;entryDx=0;entryDy=0;exitX=0;exitY=0.5;exitDx=0;exitDy=0;" parent="1" source="43f0WN8mzrDbMwz-3VTG-79" target="d6ZAwayhKA5jPn56wRFN-23" edge="1">
          <mxGeometry width="160" relative="1" as="geometry">
            <mxPoint x="205" y="399.65999999999997" as="sourcePoint" />
            <mxPoint x="265" y="399.65999999999997" as="targetPoint" />
          </mxGeometry>
        </mxCell>
        <mxCell id="43f0WN8mzrDbMwz-3VTG-81" value="" style="endArrow=open;endFill=1;endSize=12;html=1;rounded=0;exitX=1;exitY=0.5;exitDx=0;exitDy=0;entryX=0;entryY=0.5;entryDx=0;entryDy=0;" parent="1" source="43f0WN8mzrDbMwz-3VTG-79" target="d6ZAwayhKA5jPn56wRFN-5" edge="1">
          <mxGeometry width="160" relative="1" as="geometry">
            <mxPoint x="690" y="430" as="sourcePoint" />
            <mxPoint x="730" y="490" as="targetPoint" />
          </mxGeometry>
        </mxCell>
        <mxCell id="43f0WN8mzrDbMwz-3VTG-82" value="C" style="ellipse;" parent="1" vertex="1">
          <mxGeometry x="467.5" y="845" width="30" height="30" as="geometry" />
        </mxCell>
        <mxCell id="43f0WN8mzrDbMwz-3VTG-83" value="" style="endArrow=open;endFill=1;endSize=12;html=1;rounded=0;exitX=1;exitY=0.5;exitDx=0;exitDy=0;entryX=0;entryY=0.5;entryDx=0;entryDy=0;" parent="1" source="43f0WN8mzrDbMwz-3VTG-64" target="43f0WN8mzrDbMwz-3VTG-82" edge="1">
          <mxGeometry width="160" relative="1" as="geometry">
            <mxPoint x="542.5" y="865" as="sourcePoint" />
            <mxPoint x="552.5" y="895" as="targetPoint" />
          </mxGeometry>
        </mxCell>
        <mxCell id="43f0WN8mzrDbMwz-3VTG-84" value="" style="endArrow=open;endFill=1;endSize=12;html=1;rounded=0;exitX=0.5;exitY=1;exitDx=0;exitDy=0;entryX=0.5;entryY=0;entryDx=0;entryDy=0;" parent="1" source="d6ZAwayhKA5jPn56wRFN-5" target="43f0WN8mzrDbMwz-3VTG-10" edge="1">
          <mxGeometry width="160" relative="1" as="geometry">
            <mxPoint x="785" y="515" as="sourcePoint" />
            <mxPoint x="810" y="475" as="targetPoint" />
            <Array as="points" />
          </mxGeometry>
        </mxCell>
        <mxCell id="43f0WN8mzrDbMwz-3VTG-85" value="" style="endArrow=open;endFill=1;endSize=12;html=1;rounded=0;exitX=0.5;exitY=1;exitDx=0;exitDy=0;" parent="1" source="43f0WN8mzrDbMwz-3VTG-10" edge="1">
          <mxGeometry width="160" relative="1" as="geometry">
            <mxPoint x="865" y="455" as="sourcePoint" />
            <mxPoint x="720" y="525" as="targetPoint" />
            <Array as="points" />
          </mxGeometry>
        </mxCell>
        <mxCell id="43f0WN8mzrDbMwz-3VTG-86" value="" style="endArrow=open;endFill=1;endSize=12;html=1;rounded=0;entryX=1;entryY=0.5;entryDx=0;entryDy=0;exitX=0;exitY=0.5;exitDx=0;exitDy=0;" parent="1" source="43f0WN8mzrDbMwz-3VTG-14" target="43f0WN8mzrDbMwz-3VTG-87" edge="1">
          <mxGeometry width="160" relative="1" as="geometry">
            <mxPoint x="740" y="595" as="sourcePoint" />
            <mxPoint x="645" y="675" as="targetPoint" />
          </mxGeometry>
        </mxCell>
        <mxCell id="43f0WN8mzrDbMwz-3VTG-87" value="B" style="ellipse;" parent="1" vertex="1">
          <mxGeometry x="630" y="695" width="30" height="30" as="geometry" />
        </mxCell>
      </root>
    </mxGraphModel>
  </diagram>
  <diagram id="w3MdbSi1B1ckAwAdnEj9" name="State Diagram">
    <mxGraphModel dx="1418" dy="828" grid="1" gridSize="10" guides="1" tooltips="1" connect="1" arrows="1" fold="1" page="1" pageScale="1" pageWidth="850" pageHeight="1100" math="0" shadow="0">
      <root>
        <mxCell id="0" />
        <mxCell id="1" parent="0" />
        <mxCell id="1YR_dV-7LSyHW06M7RJ3-1" value="&lt;p style=&quot;line-height:1.38;margin-top:0pt;margin-bottom:0pt;&quot; dir=&quot;ltr&quot;&gt;&lt;/p&gt;&lt;p style=&quot;line-height:1.38;margin-top:0pt;margin-bottom:0pt;&quot; dir=&quot;ltr&quot;&gt;&lt;/p&gt;&lt;div&gt;&lt;/div&gt;&lt;p style=&quot;line-height:1.38;margin-top:0pt;margin-bottom:0pt;&quot; dir=&quot;ltr&quot;&gt;&lt;/p&gt;&lt;div&gt;&lt;/div&gt;&lt;div style=&quot;font-size: 16px;&quot;&gt;&lt;span id=&quot;docs-internal-guid-f29eaaca-7fff-dae4-1891-ce321481029f&quot;&gt;&lt;font color=&quot;#000000&quot;&gt;&lt;span style=&quot;font-size: 11pt; font-family: Arial, sans-serif; background-color: transparent; font-weight: 700; font-variant-numeric: normal; font-variant-east-asian: normal; font-variant-alternates: normal; font-variant-position: normal; vertical-align: baseline; white-space-collapse: preserve;&quot;&gt;State Diagram (10 points)&lt;/span&gt;&lt;span style=&quot;font-size: 11pt; font-family: Arial, sans-serif; background-color: transparent; font-variant-numeric: normal; font-variant-east-asian: normal; font-variant-alternates: normal; font-variant-position: normal; vertical-align: baseline; white-space-collapse: preserve;&quot;&gt;: Depict the possible states of the system.&lt;/span&gt;&lt;/font&gt;&lt;/span&gt;&lt;br&gt;&lt;p style=&quot;font-size: 16px;&quot;&gt;&lt;/p&gt;&lt;span style=&quot;font-size: 16px;&quot; id=&quot;docs-internal-guid-7112bc8c-7fff-d57e-7e25-45a56f821945&quot;&gt;&lt;/span&gt;&lt;/div&gt;" style="rounded=0;whiteSpace=wrap;html=1;" vertex="1" parent="1">
          <mxGeometry x="200" y="10" width="480" height="90" as="geometry" />
        </mxCell>
        <mxCell id="fvsf73NYnKq7ikZgamPG-2" value="" style="ellipse;html=1;shape=startState;fillColor=#000000;strokeColor=#ff0000;" vertex="1" parent="1">
          <mxGeometry x="15" y="180" width="30" height="30" as="geometry" />
        </mxCell>
        <mxCell id="fvsf73NYnKq7ikZgamPG-3" value="" style="edgeStyle=orthogonalEdgeStyle;html=1;verticalAlign=bottom;endArrow=open;endSize=8;strokeColor=#ff0000;rounded=0;" edge="1" parent="1">
          <mxGeometry relative="1" as="geometry">
            <mxPoint x="110" y="195" as="targetPoint" />
            <mxPoint x="40" y="195" as="sourcePoint" />
          </mxGeometry>
        </mxCell>
        <mxCell id="fvsf73NYnKq7ikZgamPG-36" style="edgeStyle=orthogonalEdgeStyle;rounded=0;orthogonalLoop=1;jettySize=auto;html=1;entryX=0;entryY=0;entryDx=0;entryDy=0;" edge="1" parent="1" source="fvsf73NYnKq7ikZgamPG-4" target="fvsf73NYnKq7ikZgamPG-35">
          <mxGeometry relative="1" as="geometry" />
        </mxCell>
        <mxCell id="fvsf73NYnKq7ikZgamPG-4" value="Updating Account Details" style="shape=umlFrame;whiteSpace=wrap;html=1;pointerEvents=0;width=180;height=50;" vertex="1" parent="1">
          <mxGeometry x="150" y="120" width="600" height="660" as="geometry" />
        </mxCell>
        <mxCell id="fvsf73NYnKq7ikZgamPG-61" style="edgeStyle=orthogonalEdgeStyle;rounded=0;orthogonalLoop=1;jettySize=auto;html=1;entryX=0.25;entryY=0;entryDx=0;entryDy=0;" edge="1" parent="1" source="fvsf73NYnKq7ikZgamPG-5" target="fvsf73NYnKq7ikZgamPG-41">
          <mxGeometry relative="1" as="geometry" />
        </mxCell>
        <mxCell id="fvsf73NYnKq7ikZgamPG-5" value="Editing&lt;div&gt;&lt;br&gt;&lt;/div&gt;" style="html=1;align=center;verticalAlign=top;rounded=1;absoluteArcSize=1;arcSize=10;dashed=0;whiteSpace=wrap;" vertex="1" parent="1">
          <mxGeometry x="313" y="277.5" width="135" height="30" as="geometry" />
        </mxCell>
        <mxCell id="fvsf73NYnKq7ikZgamPG-54" style="edgeStyle=orthogonalEdgeStyle;rounded=0;orthogonalLoop=1;jettySize=auto;html=1;" edge="1" parent="1" source="fvsf73NYnKq7ikZgamPG-6" target="fvsf73NYnKq7ikZgamPG-43">
          <mxGeometry relative="1" as="geometry" />
        </mxCell>
        <mxCell id="fvsf73NYnKq7ikZgamPG-6" value="Cancel" style="html=1;align=center;verticalAlign=top;rounded=1;absoluteArcSize=1;arcSize=10;dashed=0;whiteSpace=wrap;" vertex="1" parent="1">
          <mxGeometry x="505" y="403" width="140" height="35" as="geometry" />
        </mxCell>
        <mxCell id="fvsf73NYnKq7ikZgamPG-34" value="Login&amp;nbsp;" style="text;html=1;align=center;verticalAlign=middle;resizable=0;points=[];autosize=1;strokeColor=none;fillColor=none;" vertex="1" parent="1">
          <mxGeometry x="40" y="180" width="60" height="30" as="geometry" />
        </mxCell>
        <mxCell id="fvsf73NYnKq7ikZgamPG-35" value="" style="ellipse;html=1;shape=endState;fillColor=#000000;strokeColor=#ff0000;" vertex="1" parent="1">
          <mxGeometry x="800" y="382" width="30" height="30" as="geometry" />
        </mxCell>
        <mxCell id="fvsf73NYnKq7ikZgamPG-37" value="LogOut" style="text;html=1;align=center;verticalAlign=middle;resizable=0;points=[];autosize=1;strokeColor=none;fillColor=none;" vertex="1" parent="1">
          <mxGeometry x="750" y="308" width="60" height="30" as="geometry" />
        </mxCell>
        <mxCell id="fvsf73NYnKq7ikZgamPG-39" value="" style="ellipse;html=1;shape=startState;fillColor=#000000;strokeColor=#ff0000;" vertex="1" parent="1">
          <mxGeometry x="195" y="257.5" width="30" height="30" as="geometry" />
        </mxCell>
        <mxCell id="fvsf73NYnKq7ikZgamPG-40" value="" style="edgeStyle=orthogonalEdgeStyle;html=1;verticalAlign=bottom;endArrow=open;endSize=8;strokeColor=#ff0000;rounded=0;entryX=0;entryY=0.5;entryDx=0;entryDy=0;" edge="1" source="fvsf73NYnKq7ikZgamPG-39" parent="1" target="fvsf73NYnKq7ikZgamPG-5">
          <mxGeometry relative="1" as="geometry">
            <mxPoint x="210" y="347.5" as="targetPoint" />
          </mxGeometry>
        </mxCell>
        <mxCell id="fvsf73NYnKq7ikZgamPG-47" style="edgeStyle=orthogonalEdgeStyle;rounded=0;orthogonalLoop=1;jettySize=auto;html=1;exitX=0.674;exitY=0.967;exitDx=0;exitDy=0;exitPerimeter=0;" edge="1" parent="1" source="fvsf73NYnKq7ikZgamPG-5" target="fvsf73NYnKq7ikZgamPG-6">
          <mxGeometry relative="1" as="geometry" />
        </mxCell>
        <mxCell id="fvsf73NYnKq7ikZgamPG-48" style="edgeStyle=orthogonalEdgeStyle;rounded=0;orthogonalLoop=1;jettySize=auto;html=1;entryX=0.5;entryY=0;entryDx=0;entryDy=0;" edge="1" parent="1" source="fvsf73NYnKq7ikZgamPG-64" target="fvsf73NYnKq7ikZgamPG-42">
          <mxGeometry relative="1" as="geometry" />
        </mxCell>
        <mxCell id="fvsf73NYnKq7ikZgamPG-41" value="Save" style="html=1;align=center;verticalAlign=top;rounded=1;absoluteArcSize=1;arcSize=10;dashed=0;whiteSpace=wrap;" vertex="1" parent="1">
          <mxGeometry x="240" y="403" width="140" height="39" as="geometry" />
        </mxCell>
        <mxCell id="fvsf73NYnKq7ikZgamPG-49" style="edgeStyle=orthogonalEdgeStyle;rounded=0;orthogonalLoop=1;jettySize=auto;html=1;entryX=0.5;entryY=0;entryDx=0;entryDy=0;" edge="1" parent="1" source="fvsf73NYnKq7ikZgamPG-42" target="fvsf73NYnKq7ikZgamPG-45">
          <mxGeometry relative="1" as="geometry" />
        </mxCell>
        <mxCell id="fvsf73NYnKq7ikZgamPG-62" style="edgeStyle=orthogonalEdgeStyle;rounded=0;orthogonalLoop=1;jettySize=auto;html=1;entryX=0;entryY=0.5;entryDx=0;entryDy=0;exitX=1;exitY=0.5;exitDx=0;exitDy=0;" edge="1" parent="1" source="fvsf73NYnKq7ikZgamPG-64" target="fvsf73NYnKq7ikZgamPG-44">
          <mxGeometry relative="1" as="geometry" />
        </mxCell>
        <mxCell id="fvsf73NYnKq7ikZgamPG-42" value="Saving" style="html=1;align=center;verticalAlign=top;rounded=1;absoluteArcSize=1;arcSize=10;dashed=0;whiteSpace=wrap;" vertex="1" parent="1">
          <mxGeometry x="240" y="540" width="140" height="28" as="geometry" />
        </mxCell>
        <mxCell id="fvsf73NYnKq7ikZgamPG-55" style="edgeStyle=orthogonalEdgeStyle;rounded=0;orthogonalLoop=1;jettySize=auto;html=1;" edge="1" parent="1" source="fvsf73NYnKq7ikZgamPG-43" target="fvsf73NYnKq7ikZgamPG-44">
          <mxGeometry relative="1" as="geometry" />
        </mxCell>
        <mxCell id="fvsf73NYnKq7ikZgamPG-43" value="Cancelled" style="html=1;align=center;verticalAlign=top;rounded=1;absoluteArcSize=1;arcSize=10;dashed=0;whiteSpace=wrap;" vertex="1" parent="1">
          <mxGeometry x="505" y="467.5" width="140" height="35" as="geometry" />
        </mxCell>
        <mxCell id="fvsf73NYnKq7ikZgamPG-57" style="edgeStyle=orthogonalEdgeStyle;rounded=0;orthogonalLoop=1;jettySize=auto;html=1;entryX=0.5;entryY=0;entryDx=0;entryDy=0;" edge="1" parent="1" source="fvsf73NYnKq7ikZgamPG-44" target="fvsf73NYnKq7ikZgamPG-56">
          <mxGeometry relative="1" as="geometry" />
        </mxCell>
        <mxCell id="fvsf73NYnKq7ikZgamPG-44" value="Error" style="html=1;align=center;verticalAlign=top;rounded=1;absoluteArcSize=1;arcSize=10;dashed=0;whiteSpace=wrap;" vertex="1" parent="1">
          <mxGeometry x="505" y="558.5" width="140" height="37" as="geometry" />
        </mxCell>
        <mxCell id="fvsf73NYnKq7ikZgamPG-59" style="edgeStyle=orthogonalEdgeStyle;rounded=0;orthogonalLoop=1;jettySize=auto;html=1;entryX=0.5;entryY=0;entryDx=0;entryDy=0;" edge="1" parent="1" source="fvsf73NYnKq7ikZgamPG-45" target="fvsf73NYnKq7ikZgamPG-58">
          <mxGeometry relative="1" as="geometry" />
        </mxCell>
        <mxCell id="fvsf73NYnKq7ikZgamPG-45" value="Success" style="html=1;align=center;verticalAlign=top;rounded=1;absoluteArcSize=1;arcSize=10;dashed=0;whiteSpace=wrap;" vertex="1" parent="1">
          <mxGeometry x="240" y="613" width="140" height="35" as="geometry" />
        </mxCell>
        <mxCell id="fvsf73NYnKq7ikZgamPG-63" style="edgeStyle=orthogonalEdgeStyle;rounded=0;orthogonalLoop=1;jettySize=auto;html=1;" edge="1" parent="1" source="fvsf73NYnKq7ikZgamPG-56">
          <mxGeometry relative="1" as="geometry">
            <mxPoint x="375" y="277.5" as="targetPoint" />
            <Array as="points">
              <mxPoint x="685" y="664.5" />
              <mxPoint x="685" y="217.5" />
              <mxPoint x="375" y="217.5" />
              <mxPoint x="375" y="277.5" />
            </Array>
          </mxGeometry>
        </mxCell>
        <mxCell id="fvsf73NYnKq7ikZgamPG-56" value="Retry" style="html=1;align=center;verticalAlign=top;rounded=1;absoluteArcSize=1;arcSize=10;dashed=0;whiteSpace=wrap;" vertex="1" parent="1">
          <mxGeometry x="505" y="645.5" width="140" height="37" as="geometry" />
        </mxCell>
        <mxCell id="fvsf73NYnKq7ikZgamPG-58" value="Done" style="html=1;align=center;verticalAlign=top;rounded=1;absoluteArcSize=1;arcSize=10;dashed=0;whiteSpace=wrap;" vertex="1" parent="1">
          <mxGeometry x="240" y="700" width="140" height="35" as="geometry" />
        </mxCell>
        <mxCell id="fvsf73NYnKq7ikZgamPG-65" value="" style="edgeStyle=orthogonalEdgeStyle;rounded=0;orthogonalLoop=1;jettySize=auto;html=1;entryX=0.5;entryY=0;entryDx=0;entryDy=0;" edge="1" parent="1" source="fvsf73NYnKq7ikZgamPG-41" target="fvsf73NYnKq7ikZgamPG-64">
          <mxGeometry relative="1" as="geometry">
            <mxPoint x="310" y="442" as="sourcePoint" />
            <mxPoint x="310" y="540" as="targetPoint" />
          </mxGeometry>
        </mxCell>
        <mxCell id="fvsf73NYnKq7ikZgamPG-64" value="" style="rhombus;whiteSpace=wrap;html=1;" vertex="1" parent="1">
          <mxGeometry x="287.5" y="467.5" width="45" height="40" as="geometry" />
        </mxCell>
        <mxCell id="fzyLY8SCgLOCydNj6O3c-1" value="Saving error" style="text;html=1;align=center;verticalAlign=middle;resizable=0;points=[];autosize=1;strokeColor=none;fillColor=none;" vertex="1" parent="1">
          <mxGeometry x="415" y="550" width="90" height="30" as="geometry" />
        </mxCell>
        <mxCell id="fzyLY8SCgLOCydNj6O3c-2" value="Retry Update" style="text;html=1;align=center;verticalAlign=middle;resizable=0;points=[];autosize=1;strokeColor=none;fillColor=none;" vertex="1" parent="1">
          <mxGeometry x="580" y="220" width="90" height="30" as="geometry" />
        </mxCell>
      </root>
    </mxGraphModel>
  </diagram>
  <diagram id="wXPOKvLcGA430bJk3PY8" name="Class  Diagram">
    <mxGraphModel dx="2268" dy="828" grid="1" gridSize="10" guides="1" tooltips="1" connect="1" arrows="1" fold="1" page="1" pageScale="1" pageWidth="850" pageHeight="1100" math="0" shadow="0">
      <root>
        <mxCell id="0" />
        <mxCell id="1" parent="0" />
        <mxCell id="mhLsJNHxSjNX2FMKfdnb-1" value="&lt;p style=&quot;line-height:1.38;margin-top:0pt;margin-bottom:0pt;&quot; dir=&quot;ltr&quot;&gt;&lt;/p&gt;&lt;p style=&quot;line-height:1.38;margin-top:0pt;margin-bottom:0pt;&quot; dir=&quot;ltr&quot;&gt;&lt;/p&gt;&lt;div&gt;&lt;/div&gt;&lt;span id=&quot;docs-internal-guid-652fb281-7fff-4f25-babf-408023eb0ea0&quot;&gt;&lt;font color=&quot;#000000&quot;&gt;&lt;span style=&quot;font-size: 11pt; font-family: Arial, sans-serif; background-color: transparent; font-weight: 700; font-variant-numeric: normal; font-variant-east-asian: normal; font-variant-alternates: normal; font-variant-position: normal; vertical-align: baseline; white-space-collapse: preserve;&quot;&gt;Class Diagram (10 points)&lt;/span&gt;&lt;span style=&quot;font-size: 11pt; font-family: Arial, sans-serif; background-color: transparent; font-variant-numeric: normal; font-variant-east-asian: normal; font-variant-alternates: normal; font-variant-position: normal; vertical-align: baseline; white-space-collapse: preserve;&quot;&gt;: Ensure it encompasses all required classes, their attributes, methods, and the relationships between them.&lt;/span&gt;&lt;/font&gt;&lt;/span&gt;&lt;br&gt;&lt;p&gt;&lt;/p&gt;&lt;span id=&quot;docs-internal-guid-567491aa-7fff-4974-984a-d7e0009d4702&quot;&gt;&lt;/span&gt;" style="rounded=0;whiteSpace=wrap;html=1;" parent="1" vertex="1">
          <mxGeometry x="-590" width="390" height="80" as="geometry" />
        </mxCell>
        <mxCell id="ssVENBf26v1cpPheurNr-34" style="edgeStyle=orthogonalEdgeStyle;rounded=0;orthogonalLoop=1;jettySize=auto;html=1;" parent="1" source="yWD-ZxFcFlKbGBVl0Llf-9" edge="1">
          <mxGeometry relative="1" as="geometry">
            <mxPoint x="-670" y="620" as="targetPoint" />
          </mxGeometry>
        </mxCell>
        <mxCell id="yWD-ZxFcFlKbGBVl0Llf-9" value="User" style="swimlane;fontStyle=1;align=center;verticalAlign=top;childLayout=stackLayout;horizontal=1;startSize=26;horizontalStack=0;resizeParent=1;resizeParentMax=0;resizeLast=0;collapsible=1;marginBottom=0;whiteSpace=wrap;html=1;" parent="1" vertex="1">
          <mxGeometry x="-750" y="160" width="160" height="372" as="geometry">
            <mxRectangle x="-590" y="450" width="100" height="30" as="alternateBounds" />
          </mxGeometry>
        </mxCell>
        <mxCell id="yWD-ZxFcFlKbGBVl0Llf-10" value="username: String" style="text;strokeColor=none;fillColor=default;align=left;verticalAlign=top;spacingLeft=4;spacingRight=4;overflow=hidden;rotatable=0;points=[[0,0.5],[1,0.5]];portConstraint=eastwest;whiteSpace=wrap;html=1;" parent="yWD-ZxFcFlKbGBVl0Llf-9" vertex="1">
          <mxGeometry y="26" width="160" height="26" as="geometry" />
        </mxCell>
        <mxCell id="yWD-ZxFcFlKbGBVl0Llf-13" value="password: String" style="text;strokeColor=none;fillColor=default;align=left;verticalAlign=top;spacingLeft=4;spacingRight=4;overflow=hidden;rotatable=0;points=[[0,0.5],[1,0.5]];portConstraint=eastwest;whiteSpace=wrap;html=1;" parent="yWD-ZxFcFlKbGBVl0Llf-9" vertex="1">
          <mxGeometry y="52" width="160" height="26" as="geometry" />
        </mxCell>
        <mxCell id="yWD-ZxFcFlKbGBVl0Llf-14" value="nickname: String&lt;div&gt;&lt;br&gt;&lt;/div&gt;" style="text;strokeColor=none;fillColor=default;align=left;verticalAlign=top;spacingLeft=4;spacingRight=4;overflow=hidden;rotatable=0;points=[[0,0.5],[1,0.5]];portConstraint=eastwest;whiteSpace=wrap;html=1;" parent="yWD-ZxFcFlKbGBVl0Llf-9" vertex="1">
          <mxGeometry y="78" width="160" height="26" as="geometry" />
        </mxCell>
        <mxCell id="ssVENBf26v1cpPheurNr-2" value="&lt;div&gt;email: String&lt;/div&gt;" style="text;strokeColor=none;fillColor=default;align=left;verticalAlign=top;spacingLeft=4;spacingRight=4;overflow=hidden;rotatable=0;points=[[0,0.5],[1,0.5]];portConstraint=eastwest;whiteSpace=wrap;html=1;" parent="yWD-ZxFcFlKbGBVl0Llf-9" vertex="1">
          <mxGeometry y="104" width="160" height="26" as="geometry" />
        </mxCell>
        <mxCell id="ssVENBf26v1cpPheurNr-3" value="&lt;div&gt;birthday: Date&lt;/div&gt;" style="text;strokeColor=none;fillColor=default;align=left;verticalAlign=top;spacingLeft=4;spacingRight=4;overflow=hidden;rotatable=0;points=[[0,0.5],[1,0.5]];portConstraint=eastwest;whiteSpace=wrap;html=1;" parent="yWD-ZxFcFlKbGBVl0Llf-9" vertex="1">
          <mxGeometry y="130" width="160" height="26" as="geometry" />
        </mxCell>
        <mxCell id="yWD-ZxFcFlKbGBVl0Llf-11" value="" style="line;strokeWidth=1;fillColor=none;align=left;verticalAlign=middle;spacingTop=-1;spacingLeft=3;spacingRight=3;rotatable=0;labelPosition=right;points=[];portConstraint=eastwest;strokeColor=inherit;" parent="yWD-ZxFcFlKbGBVl0Llf-9" vertex="1">
          <mxGeometry y="156" width="160" height="8" as="geometry" />
        </mxCell>
        <mxCell id="yWD-ZxFcFlKbGBVl0Llf-12" value="updateAccountDetails&lt;span style=&quot;background-color: initial;&quot;&gt;()&lt;/span&gt;" style="text;strokeColor=none;fillColor=default;align=left;verticalAlign=top;spacingLeft=4;spacingRight=4;overflow=hidden;rotatable=0;points=[[0,0.5],[1,0.5]];portConstraint=eastwest;whiteSpace=wrap;html=1;" parent="yWD-ZxFcFlKbGBVl0Llf-9" vertex="1">
          <mxGeometry y="164" width="160" height="26" as="geometry" />
        </mxCell>
        <mxCell id="yWD-ZxFcFlKbGBVl0Llf-15" value="followUsers()" style="text;strokeColor=none;fillColor=default;align=left;verticalAlign=top;spacingLeft=4;spacingRight=4;overflow=hidden;rotatable=0;points=[[0,0.5],[1,0.5]];portConstraint=eastwest;whiteSpace=wrap;html=1;" parent="yWD-ZxFcFlKbGBVl0Llf-9" vertex="1">
          <mxGeometry y="190" width="160" height="26" as="geometry" />
        </mxCell>
        <mxCell id="yWD-ZxFcFlKbGBVl0Llf-16" value="unfollowUsers()" style="text;strokeColor=none;fillColor=default;align=left;verticalAlign=top;spacingLeft=4;spacingRight=4;overflow=hidden;rotatable=0;points=[[0,0.5],[1,0.5]];portConstraint=eastwest;whiteSpace=wrap;html=1;" parent="yWD-ZxFcFlKbGBVl0Llf-9" vertex="1">
          <mxGeometry y="216" width="160" height="26" as="geometry" />
        </mxCell>
        <mxCell id="ssVENBf26v1cpPheurNr-37" style="edgeStyle=orthogonalEdgeStyle;rounded=0;orthogonalLoop=1;jettySize=auto;html=1;exitX=1;exitY=0.5;exitDx=0;exitDy=0;" parent="yWD-ZxFcFlKbGBVl0Llf-9" source="ssVENBf26v1cpPheurNr-6" edge="1">
          <mxGeometry relative="1" as="geometry">
            <mxPoint x="260" y="470" as="targetPoint" />
            <Array as="points">
              <mxPoint x="160" y="330" />
              <mxPoint x="261" y="330" />
            </Array>
          </mxGeometry>
        </mxCell>
        <mxCell id="yWD-ZxFcFlKbGBVl0Llf-17" value="createTextPost()" style="text;strokeColor=none;fillColor=default;align=left;verticalAlign=top;spacingLeft=4;spacingRight=4;overflow=hidden;rotatable=0;points=[[0,0.5],[1,0.5]];portConstraint=eastwest;whiteSpace=wrap;html=1;" parent="yWD-ZxFcFlKbGBVl0Llf-9" vertex="1">
          <mxGeometry y="242" width="160" height="26" as="geometry" />
        </mxCell>
        <mxCell id="ssVENBf26v1cpPheurNr-4" value="deleteTextPost()" style="text;strokeColor=none;fillColor=default;align=left;verticalAlign=top;spacingLeft=4;spacingRight=4;overflow=hidden;rotatable=0;points=[[0,0.5],[1,0.5]];portConstraint=eastwest;whiteSpace=wrap;html=1;" parent="yWD-ZxFcFlKbGBVl0Llf-9" vertex="1">
          <mxGeometry y="268" width="160" height="26" as="geometry" />
        </mxCell>
        <mxCell id="ssVENBf26v1cpPheurNr-5" value="likePost()" style="text;strokeColor=none;fillColor=default;align=left;verticalAlign=top;spacingLeft=4;spacingRight=4;overflow=hidden;rotatable=0;points=[[0,0.5],[1,0.5]];portConstraint=eastwest;whiteSpace=wrap;html=1;" parent="yWD-ZxFcFlKbGBVl0Llf-9" vertex="1">
          <mxGeometry y="294" width="160" height="26" as="geometry" />
        </mxCell>
        <mxCell id="ssVENBf26v1cpPheurNr-6" value="commentOnPost()" style="text;strokeColor=none;fillColor=default;align=left;verticalAlign=top;spacingLeft=4;spacingRight=4;overflow=hidden;rotatable=0;points=[[0,0.5],[1,0.5]];portConstraint=eastwest;whiteSpace=wrap;html=1;" parent="yWD-ZxFcFlKbGBVl0Llf-9" vertex="1">
          <mxGeometry y="320" width="160" height="26" as="geometry" />
        </mxCell>
        <mxCell id="ssVENBf26v1cpPheurNr-7" value="forwardPost()" style="text;strokeColor=none;fillColor=default;align=left;verticalAlign=top;spacingLeft=4;spacingRight=4;overflow=hidden;rotatable=0;points=[[0,0.5],[1,0.5]];portConstraint=eastwest;whiteSpace=wrap;html=1;" parent="yWD-ZxFcFlKbGBVl0Llf-9" vertex="1">
          <mxGeometry y="346" width="160" height="26" as="geometry" />
        </mxCell>
        <mxCell id="ssVENBf26v1cpPheurNr-18" style="edgeStyle=orthogonalEdgeStyle;rounded=0;orthogonalLoop=1;jettySize=auto;html=1;" parent="1" source="yWD-ZxFcFlKbGBVl0Llf-18" edge="1">
          <mxGeometry relative="1" as="geometry">
            <mxPoint x="-200" y="490" as="targetPoint" />
          </mxGeometry>
        </mxCell>
        <mxCell id="yWD-ZxFcFlKbGBVl0Llf-18" value="Post" style="swimlane;fontStyle=1;align=center;verticalAlign=top;childLayout=stackLayout;horizontal=1;startSize=26;horizontalStack=0;resizeParent=1;resizeParentMax=0;resizeLast=0;collapsible=1;marginBottom=0;whiteSpace=wrap;html=1;" parent="1" vertex="1">
          <mxGeometry x="-280" y="160" width="160" height="216" as="geometry">
            <mxRectangle x="-590" y="450" width="100" height="30" as="alternateBounds" />
          </mxGeometry>
        </mxCell>
        <mxCell id="yWD-ZxFcFlKbGBVl0Llf-19" value="postID: String" style="text;strokeColor=none;fillColor=default;align=left;verticalAlign=top;spacingLeft=4;spacingRight=4;overflow=hidden;rotatable=0;points=[[0,0.5],[1,0.5]];portConstraint=eastwest;whiteSpace=wrap;html=1;" parent="yWD-ZxFcFlKbGBVl0Llf-18" vertex="1">
          <mxGeometry y="26" width="160" height="26" as="geometry" />
        </mxCell>
        <mxCell id="yWD-ZxFcFlKbGBVl0Llf-20" value="author: User" style="text;strokeColor=none;fillColor=default;align=left;verticalAlign=top;spacingLeft=4;spacingRight=4;overflow=hidden;rotatable=0;points=[[0,0.5],[1,0.5]];portConstraint=eastwest;whiteSpace=wrap;html=1;" parent="yWD-ZxFcFlKbGBVl0Llf-18" vertex="1">
          <mxGeometry y="52" width="160" height="26" as="geometry" />
        </mxCell>
        <mxCell id="ssVENBf26v1cpPheurNr-10" value="content: String" style="text;strokeColor=none;fillColor=default;align=left;verticalAlign=top;spacingLeft=4;spacingRight=4;overflow=hidden;rotatable=0;points=[[0,0.5],[1,0.5]];portConstraint=eastwest;whiteSpace=wrap;html=1;" parent="yWD-ZxFcFlKbGBVl0Llf-18" vertex="1">
          <mxGeometry y="78" width="160" height="26" as="geometry" />
        </mxCell>
        <mxCell id="yWD-ZxFcFlKbGBVl0Llf-28" value="likes: List&amp;lt;User&amp;gt;" style="text;strokeColor=none;fillColor=default;align=left;verticalAlign=top;spacingLeft=4;spacingRight=4;overflow=hidden;rotatable=0;points=[[0,0.5],[1,0.5]];portConstraint=eastwest;whiteSpace=wrap;html=1;" parent="yWD-ZxFcFlKbGBVl0Llf-18" vertex="1">
          <mxGeometry y="104" width="160" height="26" as="geometry" />
        </mxCell>
        <mxCell id="yWD-ZxFcFlKbGBVl0Llf-29" value="Comment: List&amp;lt;Comment&amp;gt;" style="text;strokeColor=none;fillColor=default;align=left;verticalAlign=top;spacingLeft=4;spacingRight=4;overflow=hidden;rotatable=0;points=[[0,0.5],[1,0.5]];portConstraint=eastwest;whiteSpace=wrap;html=1;" parent="yWD-ZxFcFlKbGBVl0Llf-18" vertex="1">
          <mxGeometry y="130" width="160" height="26" as="geometry" />
        </mxCell>
        <mxCell id="yWD-ZxFcFlKbGBVl0Llf-22" value="" style="line;strokeWidth=1;fillColor=none;align=left;verticalAlign=middle;spacingTop=-1;spacingLeft=3;spacingRight=3;rotatable=0;labelPosition=right;points=[];portConstraint=eastwest;strokeColor=inherit;" parent="yWD-ZxFcFlKbGBVl0Llf-18" vertex="1">
          <mxGeometry y="156" width="160" height="8" as="geometry" />
        </mxCell>
        <mxCell id="yWD-ZxFcFlKbGBVl0Llf-23" value="addLikes()" style="text;strokeColor=none;fillColor=default;align=left;verticalAlign=top;spacingLeft=4;spacingRight=4;overflow=hidden;rotatable=0;points=[[0,0.5],[1,0.5]];portConstraint=eastwest;whiteSpace=wrap;html=1;" parent="yWD-ZxFcFlKbGBVl0Llf-18" vertex="1">
          <mxGeometry y="164" width="160" height="26" as="geometry" />
        </mxCell>
        <mxCell id="ssVENBf26v1cpPheurNr-8" value="addComment()" style="text;strokeColor=none;fillColor=default;align=left;verticalAlign=top;spacingLeft=4;spacingRight=4;overflow=hidden;rotatable=0;points=[[0,0.5],[1,0.5]];portConstraint=eastwest;whiteSpace=wrap;html=1;" parent="yWD-ZxFcFlKbGBVl0Llf-18" vertex="1">
          <mxGeometry y="190" width="160" height="26" as="geometry" />
        </mxCell>
        <mxCell id="yWD-ZxFcFlKbGBVl0Llf-30" value="Comment" style="swimlane;fontStyle=1;align=center;verticalAlign=top;childLayout=stackLayout;horizontal=1;startSize=26;horizontalStack=0;resizeParent=1;resizeParentMax=0;resizeLast=0;collapsible=1;marginBottom=0;whiteSpace=wrap;html=1;" parent="1" vertex="1">
          <mxGeometry x="-270" y="496" width="160" height="112" as="geometry">
            <mxRectangle x="-590" y="450" width="100" height="30" as="alternateBounds" />
          </mxGeometry>
        </mxCell>
        <mxCell id="yWD-ZxFcFlKbGBVl0Llf-31" value="commentID: String" style="text;strokeColor=none;fillColor=default;align=left;verticalAlign=top;spacingLeft=4;spacingRight=4;overflow=hidden;rotatable=0;points=[[0,0.5],[1,0.5]];portConstraint=eastwest;whiteSpace=wrap;html=1;" parent="yWD-ZxFcFlKbGBVl0Llf-30" vertex="1">
          <mxGeometry y="26" width="160" height="26" as="geometry" />
        </mxCell>
        <mxCell id="ssVENBf26v1cpPheurNr-9" value="content: String" style="text;strokeColor=none;fillColor=default;align=left;verticalAlign=top;spacingLeft=4;spacingRight=4;overflow=hidden;rotatable=0;points=[[0,0.5],[1,0.5]];portConstraint=eastwest;whiteSpace=wrap;html=1;" parent="yWD-ZxFcFlKbGBVl0Llf-30" vertex="1">
          <mxGeometry y="52" width="160" height="26" as="geometry" />
        </mxCell>
        <mxCell id="yWD-ZxFcFlKbGBVl0Llf-32" value="author: User" style="text;strokeColor=none;fillColor=default;align=left;verticalAlign=top;spacingLeft=4;spacingRight=4;overflow=hidden;rotatable=0;points=[[0,0.5],[1,0.5]];portConstraint=eastwest;whiteSpace=wrap;html=1;" parent="yWD-ZxFcFlKbGBVl0Llf-30" vertex="1">
          <mxGeometry y="78" width="160" height="26" as="geometry" />
        </mxCell>
        <mxCell id="yWD-ZxFcFlKbGBVl0Llf-36" value="" style="line;strokeWidth=1;fillColor=none;align=left;verticalAlign=middle;spacingTop=-1;spacingLeft=3;spacingRight=3;rotatable=0;labelPosition=right;points=[];portConstraint=eastwest;strokeColor=inherit;" parent="yWD-ZxFcFlKbGBVl0Llf-30" vertex="1">
          <mxGeometry y="104" width="160" height="8" as="geometry" />
        </mxCell>
        <mxCell id="ssVENBf26v1cpPheurNr-12" style="edgeStyle=orthogonalEdgeStyle;rounded=0;orthogonalLoop=1;jettySize=auto;html=1;entryX=-0.037;entryY=0.846;entryDx=0;entryDy=0;entryPerimeter=0;" parent="1" source="yWD-ZxFcFlKbGBVl0Llf-9" target="yWD-ZxFcFlKbGBVl0Llf-23" edge="1">
          <mxGeometry relative="1" as="geometry" />
        </mxCell>
        <mxCell id="ssVENBf26v1cpPheurNr-13" value="1..*" style="text;html=1;align=center;verticalAlign=middle;resizable=0;points=[];autosize=1;strokeColor=none;fillColor=none;" parent="1" vertex="1">
          <mxGeometry x="-340" y="348" width="40" height="30" as="geometry" />
        </mxCell>
        <mxCell id="ssVENBf26v1cpPheurNr-14" value="1" style="text;html=1;align=center;verticalAlign=middle;resizable=0;points=[];autosize=1;strokeColor=none;fillColor=none;" parent="1" vertex="1">
          <mxGeometry x="-590" y="348" width="30" height="30" as="geometry" />
        </mxCell>
        <mxCell id="ssVENBf26v1cpPheurNr-16" value="1..*" style="text;html=1;align=center;verticalAlign=middle;resizable=0;points=[];autosize=1;strokeColor=none;fillColor=none;" parent="1" vertex="1">
          <mxGeometry x="-240" y="466" width="40" height="30" as="geometry" />
        </mxCell>
        <mxCell id="ssVENBf26v1cpPheurNr-17" value="1" style="text;html=1;align=center;verticalAlign=middle;resizable=0;points=[];autosize=1;strokeColor=none;fillColor=none;" parent="1" vertex="1">
          <mxGeometry x="-230" y="376" width="30" height="30" as="geometry" />
        </mxCell>
        <mxCell id="ssVENBf26v1cpPheurNr-20" value="Follow" style="swimlane;fontStyle=1;align=center;verticalAlign=top;childLayout=stackLayout;horizontal=1;startSize=26;horizontalStack=0;resizeParent=1;resizeParentMax=0;resizeLast=0;collapsible=1;marginBottom=0;whiteSpace=wrap;html=1;" parent="1" vertex="1">
          <mxGeometry x="-750" y="630" width="160" height="112" as="geometry">
            <mxRectangle x="-590" y="450" width="100" height="30" as="alternateBounds" />
          </mxGeometry>
        </mxCell>
        <mxCell id="ssVENBf26v1cpPheurNr-21" value="followID: String" style="text;strokeColor=none;fillColor=default;align=left;verticalAlign=top;spacingLeft=4;spacingRight=4;overflow=hidden;rotatable=0;points=[[0,0.5],[1,0.5]];portConstraint=eastwest;whiteSpace=wrap;html=1;" parent="ssVENBf26v1cpPheurNr-20" vertex="1">
          <mxGeometry y="26" width="160" height="26" as="geometry" />
        </mxCell>
        <mxCell id="ssVENBf26v1cpPheurNr-22" value="followerID: String" style="text;strokeColor=none;fillColor=default;align=left;verticalAlign=top;spacingLeft=4;spacingRight=4;overflow=hidden;rotatable=0;points=[[0,0.5],[1,0.5]];portConstraint=eastwest;whiteSpace=wrap;html=1;" parent="ssVENBf26v1cpPheurNr-20" vertex="1">
          <mxGeometry y="52" width="160" height="26" as="geometry" />
        </mxCell>
        <mxCell id="ssVENBf26v1cpPheurNr-23" value="followingID: String" style="text;strokeColor=none;fillColor=default;align=left;verticalAlign=top;spacingLeft=4;spacingRight=4;overflow=hidden;rotatable=0;points=[[0,0.5],[1,0.5]];portConstraint=eastwest;whiteSpace=wrap;html=1;" parent="ssVENBf26v1cpPheurNr-20" vertex="1">
          <mxGeometry y="78" width="160" height="26" as="geometry" />
        </mxCell>
        <mxCell id="ssVENBf26v1cpPheurNr-26" value="" style="line;strokeWidth=1;fillColor=none;align=left;verticalAlign=middle;spacingTop=-1;spacingLeft=3;spacingRight=3;rotatable=0;labelPosition=right;points=[];portConstraint=eastwest;strokeColor=inherit;" parent="ssVENBf26v1cpPheurNr-20" vertex="1">
          <mxGeometry y="104" width="160" height="8" as="geometry" />
        </mxCell>
        <mxCell id="ssVENBf26v1cpPheurNr-29" value="Unfollow" style="swimlane;fontStyle=1;align=center;verticalAlign=top;childLayout=stackLayout;horizontal=1;startSize=26;horizontalStack=0;resizeParent=1;resizeParentMax=0;resizeLast=0;collapsible=1;marginBottom=0;whiteSpace=wrap;html=1;" parent="1" vertex="1">
          <mxGeometry x="-530" y="640" width="160" height="112" as="geometry">
            <mxRectangle x="-590" y="450" width="100" height="30" as="alternateBounds" />
          </mxGeometry>
        </mxCell>
        <mxCell id="ssVENBf26v1cpPheurNr-30" value="unFollowID: String" style="text;strokeColor=none;fillColor=default;align=left;verticalAlign=top;spacingLeft=4;spacingRight=4;overflow=hidden;rotatable=0;points=[[0,0.5],[1,0.5]];portConstraint=eastwest;whiteSpace=wrap;html=1;" parent="ssVENBf26v1cpPheurNr-29" vertex="1">
          <mxGeometry y="26" width="160" height="26" as="geometry" />
        </mxCell>
        <mxCell id="ssVENBf26v1cpPheurNr-31" value="unFollowerID: String" style="text;strokeColor=none;fillColor=default;align=left;verticalAlign=top;spacingLeft=4;spacingRight=4;overflow=hidden;rotatable=0;points=[[0,0.5],[1,0.5]];portConstraint=eastwest;whiteSpace=wrap;html=1;" parent="ssVENBf26v1cpPheurNr-29" vertex="1">
          <mxGeometry y="52" width="160" height="26" as="geometry" />
        </mxCell>
        <mxCell id="ssVENBf26v1cpPheurNr-32" value="unFollowingID: String" style="text;strokeColor=none;fillColor=default;align=left;verticalAlign=top;spacingLeft=4;spacingRight=4;overflow=hidden;rotatable=0;points=[[0,0.5],[1,0.5]];portConstraint=eastwest;whiteSpace=wrap;html=1;" parent="ssVENBf26v1cpPheurNr-29" vertex="1">
          <mxGeometry y="78" width="160" height="26" as="geometry" />
        </mxCell>
        <mxCell id="ssVENBf26v1cpPheurNr-33" value="" style="line;strokeWidth=1;fillColor=none;align=left;verticalAlign=middle;spacingTop=-1;spacingLeft=3;spacingRight=3;rotatable=0;labelPosition=right;points=[];portConstraint=eastwest;strokeColor=inherit;" parent="ssVENBf26v1cpPheurNr-29" vertex="1">
          <mxGeometry y="104" width="160" height="8" as="geometry" />
        </mxCell>
        <mxCell id="ssVENBf26v1cpPheurNr-35" value="1..*" style="text;html=1;align=center;verticalAlign=middle;resizable=0;points=[];autosize=1;strokeColor=none;fillColor=none;" parent="1" vertex="1">
          <mxGeometry x="-660" y="590" width="40" height="30" as="geometry" />
        </mxCell>
        <mxCell id="ssVENBf26v1cpPheurNr-36" value="1" style="text;html=1;align=center;verticalAlign=middle;resizable=0;points=[];autosize=1;strokeColor=none;fillColor=none;" parent="1" vertex="1">
          <mxGeometry x="-660" y="537" width="30" height="30" as="geometry" />
        </mxCell>
        <mxCell id="ssVENBf26v1cpPheurNr-39" value="1..*" style="text;html=1;align=center;verticalAlign=middle;resizable=0;points=[];autosize=1;strokeColor=none;fillColor=none;" parent="1" vertex="1">
          <mxGeometry x="-540.5" y="590" width="40" height="30" as="geometry" />
        </mxCell>
        <mxCell id="ssVENBf26v1cpPheurNr-42" value="1" style="text;html=1;align=center;verticalAlign=middle;resizable=0;points=[];autosize=1;strokeColor=none;fillColor=none;" parent="1" vertex="1">
          <mxGeometry x="-590" y="502" width="30" height="30" as="geometry" />
        </mxCell>
        <mxCell id="ssVENBf26v1cpPheurNr-43" value="LikePost" style="swimlane;fontStyle=1;align=center;verticalAlign=top;childLayout=stackLayout;horizontal=1;startSize=26;horizontalStack=0;resizeParent=1;resizeParentMax=0;resizeLast=0;collapsible=1;marginBottom=0;whiteSpace=wrap;html=1;" parent="1" vertex="1">
          <mxGeometry x="-310" y="640" width="160" height="112" as="geometry">
            <mxRectangle x="-590" y="450" width="100" height="30" as="alternateBounds" />
          </mxGeometry>
        </mxCell>
        <mxCell id="ssVENBf26v1cpPheurNr-44" value="likeD: String" style="text;strokeColor=none;fillColor=default;align=left;verticalAlign=top;spacingLeft=4;spacingRight=4;overflow=hidden;rotatable=0;points=[[0,0.5],[1,0.5]];portConstraint=eastwest;whiteSpace=wrap;html=1;" parent="ssVENBf26v1cpPheurNr-43" vertex="1">
          <mxGeometry y="26" width="160" height="26" as="geometry" />
        </mxCell>
        <mxCell id="ssVENBf26v1cpPheurNr-45" value="userID: String" style="text;strokeColor=none;fillColor=default;align=left;verticalAlign=top;spacingLeft=4;spacingRight=4;overflow=hidden;rotatable=0;points=[[0,0.5],[1,0.5]];portConstraint=eastwest;whiteSpace=wrap;html=1;" parent="ssVENBf26v1cpPheurNr-43" vertex="1">
          <mxGeometry y="52" width="160" height="26" as="geometry" />
        </mxCell>
        <mxCell id="ssVENBf26v1cpPheurNr-46" value="postID: String" style="text;strokeColor=none;fillColor=default;align=left;verticalAlign=top;spacingLeft=4;spacingRight=4;overflow=hidden;rotatable=0;points=[[0,0.5],[1,0.5]];portConstraint=eastwest;whiteSpace=wrap;html=1;" parent="ssVENBf26v1cpPheurNr-43" vertex="1">
          <mxGeometry y="78" width="160" height="26" as="geometry" />
        </mxCell>
        <mxCell id="ssVENBf26v1cpPheurNr-47" value="" style="line;strokeWidth=1;fillColor=none;align=left;verticalAlign=middle;spacingTop=-1;spacingLeft=3;spacingRight=3;rotatable=0;labelPosition=right;points=[];portConstraint=eastwest;strokeColor=inherit;" parent="ssVENBf26v1cpPheurNr-43" vertex="1">
          <mxGeometry y="104" width="160" height="8" as="geometry" />
        </mxCell>
        <mxCell id="ssVENBf26v1cpPheurNr-48" style="edgeStyle=orthogonalEdgeStyle;rounded=0;orthogonalLoop=1;jettySize=auto;html=1;entryX=0.063;entryY=0;entryDx=0;entryDy=0;entryPerimeter=0;" parent="1" source="yWD-ZxFcFlKbGBVl0Llf-16" target="ssVENBf26v1cpPheurNr-43" edge="1">
          <mxGeometry relative="1" as="geometry" />
        </mxCell>
        <mxCell id="ssVENBf26v1cpPheurNr-50" value="1..*" style="text;html=1;align=center;verticalAlign=middle;resizable=0;points=[];autosize=1;strokeColor=none;fillColor=none;" parent="1" vertex="1">
          <mxGeometry x="-340" y="600" width="40" height="30" as="geometry" />
        </mxCell>
        <mxCell id="ssVENBf26v1cpPheurNr-51" value="1" style="text;html=1;align=center;verticalAlign=middle;resizable=0;points=[];autosize=1;strokeColor=none;fillColor=none;" parent="1" vertex="1">
          <mxGeometry x="-590" y="390" width="30" height="30" as="geometry" />
        </mxCell>
        <mxCell id="ssVENBf26v1cpPheurNr-52" value="Forward Posts" style="swimlane;fontStyle=1;align=center;verticalAlign=top;childLayout=stackLayout;horizontal=1;startSize=26;horizontalStack=0;resizeParent=1;resizeParentMax=0;resizeLast=0;collapsible=1;marginBottom=0;whiteSpace=wrap;html=1;" parent="1" vertex="1">
          <mxGeometry x="-750" y="790" width="160" height="112" as="geometry">
            <mxRectangle x="-590" y="450" width="100" height="30" as="alternateBounds" />
          </mxGeometry>
        </mxCell>
        <mxCell id="ssVENBf26v1cpPheurNr-53" value="forwardID: String" style="text;strokeColor=none;fillColor=default;align=left;verticalAlign=top;spacingLeft=4;spacingRight=4;overflow=hidden;rotatable=0;points=[[0,0.5],[1,0.5]];portConstraint=eastwest;whiteSpace=wrap;html=1;" parent="ssVENBf26v1cpPheurNr-52" vertex="1">
          <mxGeometry y="26" width="160" height="26" as="geometry" />
        </mxCell>
        <mxCell id="ssVENBf26v1cpPheurNr-54" value="userID: String" style="text;strokeColor=none;fillColor=default;align=left;verticalAlign=top;spacingLeft=4;spacingRight=4;overflow=hidden;rotatable=0;points=[[0,0.5],[1,0.5]];portConstraint=eastwest;whiteSpace=wrap;html=1;" parent="ssVENBf26v1cpPheurNr-52" vertex="1">
          <mxGeometry y="52" width="160" height="26" as="geometry" />
        </mxCell>
        <mxCell id="ssVENBf26v1cpPheurNr-55" value="postID: String" style="text;strokeColor=none;fillColor=default;align=left;verticalAlign=top;spacingLeft=4;spacingRight=4;overflow=hidden;rotatable=0;points=[[0,0.5],[1,0.5]];portConstraint=eastwest;whiteSpace=wrap;html=1;" parent="ssVENBf26v1cpPheurNr-52" vertex="1">
          <mxGeometry y="78" width="160" height="26" as="geometry" />
        </mxCell>
        <mxCell id="ssVENBf26v1cpPheurNr-56" value="" style="line;strokeWidth=1;fillColor=none;align=left;verticalAlign=middle;spacingTop=-1;spacingLeft=3;spacingRight=3;rotatable=0;labelPosition=right;points=[];portConstraint=eastwest;strokeColor=inherit;" parent="ssVENBf26v1cpPheurNr-52" vertex="1">
          <mxGeometry y="104" width="160" height="8" as="geometry" />
        </mxCell>
        <mxCell id="ssVENBf26v1cpPheurNr-57" style="edgeStyle=orthogonalEdgeStyle;rounded=0;orthogonalLoop=1;jettySize=auto;html=1;entryX=0;entryY=0.5;entryDx=0;entryDy=0;" parent="1" source="ssVENBf26v1cpPheurNr-7" target="ssVENBf26v1cpPheurNr-54" edge="1">
          <mxGeometry relative="1" as="geometry" />
        </mxCell>
        <mxCell id="ssVENBf26v1cpPheurNr-58" value="1..*" style="text;html=1;align=center;verticalAlign=middle;resizable=0;points=[];autosize=1;strokeColor=none;fillColor=none;" parent="1" vertex="1">
          <mxGeometry x="-820" y="840" width="40" height="30" as="geometry" />
        </mxCell>
        <mxCell id="ssVENBf26v1cpPheurNr-59" value="1" style="text;html=1;align=center;verticalAlign=middle;resizable=0;points=[];autosize=1;strokeColor=none;fillColor=none;" parent="1" vertex="1">
          <mxGeometry x="-810" y="520" width="30" height="30" as="geometry" />
        </mxCell>
        <mxCell id="ssVENBf26v1cpPheurNr-60" value="Following List" style="swimlane;fontStyle=1;align=center;verticalAlign=top;childLayout=stackLayout;horizontal=1;startSize=26;horizontalStack=0;resizeParent=1;resizeParentMax=0;resizeLast=0;collapsible=1;marginBottom=0;whiteSpace=wrap;html=1;" parent="1" vertex="1">
          <mxGeometry x="-475" y="830" width="160" height="86" as="geometry">
            <mxRectangle x="-590" y="450" width="100" height="30" as="alternateBounds" />
          </mxGeometry>
        </mxCell>
        <mxCell id="ssVENBf26v1cpPheurNr-61" value="userID: String" style="text;strokeColor=none;fillColor=default;align=left;verticalAlign=top;spacingLeft=4;spacingRight=4;overflow=hidden;rotatable=0;points=[[0,0.5],[1,0.5]];portConstraint=eastwest;whiteSpace=wrap;html=1;" parent="ssVENBf26v1cpPheurNr-60" vertex="1">
          <mxGeometry y="26" width="160" height="26" as="geometry" />
        </mxCell>
        <mxCell id="ssVENBf26v1cpPheurNr-62" value="followers: List&amp;lt;User&amp;gt;" style="text;strokeColor=none;fillColor=default;align=left;verticalAlign=top;spacingLeft=4;spacingRight=4;overflow=hidden;rotatable=0;points=[[0,0.5],[1,0.5]];portConstraint=eastwest;whiteSpace=wrap;html=1;" parent="ssVENBf26v1cpPheurNr-60" vertex="1">
          <mxGeometry y="52" width="160" height="26" as="geometry" />
        </mxCell>
        <mxCell id="ssVENBf26v1cpPheurNr-64" value="" style="line;strokeWidth=1;fillColor=none;align=left;verticalAlign=middle;spacingTop=-1;spacingLeft=3;spacingRight=3;rotatable=0;labelPosition=right;points=[];portConstraint=eastwest;strokeColor=inherit;" parent="ssVENBf26v1cpPheurNr-60" vertex="1">
          <mxGeometry y="78" width="160" height="8" as="geometry" />
        </mxCell>
        <mxCell id="ssVENBf26v1cpPheurNr-67" value="1..*" style="text;html=1;align=center;verticalAlign=middle;resizable=0;points=[];autosize=1;strokeColor=none;fillColor=none;" parent="1" vertex="1">
          <mxGeometry x="-405" y="790" width="40" height="30" as="geometry" />
        </mxCell>
        <mxCell id="ssVENBf26v1cpPheurNr-68" value="DeleteTextPost" style="swimlane;fontStyle=1;align=center;verticalAlign=top;childLayout=stackLayout;horizontal=1;startSize=26;horizontalStack=0;resizeParent=1;resizeParentMax=0;resizeLast=0;collapsible=1;marginBottom=0;whiteSpace=wrap;html=1;" parent="1" vertex="1">
          <mxGeometry x="-220" y="840" width="160" height="60" as="geometry">
            <mxRectangle x="-590" y="450" width="100" height="30" as="alternateBounds" />
          </mxGeometry>
        </mxCell>
        <mxCell id="ssVENBf26v1cpPheurNr-71" value="postID: String" style="text;strokeColor=none;fillColor=default;align=left;verticalAlign=top;spacingLeft=4;spacingRight=4;overflow=hidden;rotatable=0;points=[[0,0.5],[1,0.5]];portConstraint=eastwest;whiteSpace=wrap;html=1;" parent="ssVENBf26v1cpPheurNr-68" vertex="1">
          <mxGeometry y="26" width="160" height="26" as="geometry" />
        </mxCell>
        <mxCell id="ssVENBf26v1cpPheurNr-72" value="" style="line;strokeWidth=1;fillColor=none;align=left;verticalAlign=middle;spacingTop=-1;spacingLeft=3;spacingRight=3;rotatable=0;labelPosition=right;points=[];portConstraint=eastwest;strokeColor=inherit;" parent="ssVENBf26v1cpPheurNr-68" vertex="1">
          <mxGeometry y="52" width="160" height="8" as="geometry" />
        </mxCell>
        <mxCell id="ssVENBf26v1cpPheurNr-75" value="1" style="text;html=1;align=center;verticalAlign=middle;resizable=0;points=[];autosize=1;strokeColor=none;fillColor=none;" parent="1" vertex="1">
          <mxGeometry x="-40" y="855" width="30" height="30" as="geometry" />
        </mxCell>
        <mxCell id="ssVENBf26v1cpPheurNr-73" style="edgeStyle=orthogonalEdgeStyle;rounded=0;orthogonalLoop=1;jettySize=auto;html=1;entryX=1;entryY=0.75;entryDx=0;entryDy=0;exitX=1;exitY=0.115;exitDx=0;exitDy=0;exitPerimeter=0;" parent="1" source="yWD-ZxFcFlKbGBVl0Llf-29" target="ssVENBf26v1cpPheurNr-68" edge="1">
          <mxGeometry relative="1" as="geometry">
            <mxPoint x="-510" y="441" as="targetPoint" />
          </mxGeometry>
        </mxCell>
        <mxCell id="ssVENBf26v1cpPheurNr-76" style="edgeStyle=orthogonalEdgeStyle;rounded=0;orthogonalLoop=1;jettySize=auto;html=1;exitX=1;exitY=0.5;exitDx=0;exitDy=0;" parent="1" source="yWD-ZxFcFlKbGBVl0Llf-10" edge="1">
          <mxGeometry relative="1" as="geometry">
            <mxPoint x="-350" y="820" as="targetPoint" />
            <Array as="points">
              <mxPoint x="-350" y="199" />
            </Array>
          </mxGeometry>
        </mxCell>
        <mxCell id="ssVENBf26v1cpPheurNr-77" value="1" style="text;html=1;align=center;verticalAlign=middle;resizable=0;points=[];autosize=1;strokeColor=none;fillColor=none;" parent="1" vertex="1">
          <mxGeometry x="-590" y="200" width="30" height="30" as="geometry" />
        </mxCell>
      </root>
    </mxGraphModel>
  </diagram>
  <diagram id="GXd7wWYc3mvMzXPA2oHW" name="Sequence Diagram">
    <mxGraphModel dx="1668" dy="3174" grid="1" gridSize="10" guides="1" tooltips="1" connect="1" arrows="1" fold="1" page="1" pageScale="1" pageWidth="850" pageHeight="1100" math="0" shadow="0">
      <root>
        <mxCell id="0" />
        <mxCell id="1" parent="0" />
        <mxCell id="XFhCytXhQTles4i8MFk9-1" value="&lt;p style=&quot;line-height:1.38;margin-top:0pt;margin-bottom:0pt;&quot; dir=&quot;ltr&quot;&gt;&lt;/p&gt;&lt;p style=&quot;line-height:1.38;margin-top:0pt;margin-bottom:0pt;&quot; dir=&quot;ltr&quot;&gt;&lt;/p&gt;&lt;div&gt;&lt;p style=&quot;line-height:1.38;margin-top:0pt;margin-bottom:0pt;&quot; dir=&quot;ltr&quot;&gt;&lt;/p&gt;&lt;p style=&quot;line-height:1.38;margin-top:0pt;margin-bottom:0pt;&quot; dir=&quot;ltr&quot;&gt;&lt;/p&gt;&lt;div&gt;&lt;p style=&quot;line-height:1.38;margin-top:0pt;margin-bottom:0pt;&quot; dir=&quot;ltr&quot;&gt;&lt;/p&gt;&lt;div&gt;&lt;span id=&quot;docs-internal-guid-a1322280-7fff-90ae-96ec-21e9bae6ce07&quot;&gt;&lt;ol style=&quot;margin-top:0;margin-bottom:0;padding-inline-start:48px;&quot;&gt;&lt;li aria-level=&quot;1&quot; style=&quot;list-style-type: decimal; font-size: 11pt; font-family: Arial, sans-serif; background-color: transparent; font-variant-numeric: normal; font-variant-east-asian: normal; font-variant-alternates: normal; font-variant-position: normal; vertical-align: baseline; white-space: pre;&quot; dir=&quot;ltr&quot;&gt;&lt;p role=&quot;presentation&quot; style=&quot;line-height: 1.8; margin-top: 0pt; margin-bottom: 0pt;&quot; dir=&quot;ltr&quot;&gt;&lt;font color=&quot;#000000&quot;&gt;&lt;span style=&quot;font-size: 11pt; background-color: transparent; font-weight: 700; font-variant-numeric: normal; font-variant-east-asian: normal; font-variant-alternates: normal; font-variant-position: normal; vertical-align: baseline; text-wrap: wrap;&quot;&gt;Sequence Diagram (10 points)&lt;/span&gt;&lt;span style=&quot;font-size: 11pt; background-color: transparent; font-variant-numeric: normal; font-variant-east-asian: normal; font-variant-alternates: normal; font-variant-position: normal; vertical-align: baseline; text-wrap: wrap;&quot;&gt;: Present interactions between system objects for each use case.&lt;/span&gt;&lt;/font&gt;&lt;/p&gt;&lt;/li&gt;&lt;/ol&gt;&lt;/span&gt;&lt;/div&gt;&lt;p&gt;&lt;/p&gt;&lt;span id=&quot;docs-internal-guid-68c38844-7fff-d334-4487-28d21aceab67&quot;&gt;&lt;/span&gt;&lt;/div&gt;&lt;/div&gt;&lt;span id=&quot;docs-internal-guid-682cdb9b-7fff-9381-0b07-d901b3f3270a&quot;&gt;&lt;/span&gt;" style="rounded=0;whiteSpace=wrap;html=1;" parent="1" vertex="1">
          <mxGeometry x="160" y="-2190" width="545" height="60" as="geometry" />
        </mxCell>
        <mxCell id="PES1R1bx2U_6cO4VifAW-6" value="" style="shape=umlLifeline;perimeter=lifelinePerimeter;whiteSpace=wrap;html=1;container=1;dropTarget=0;collapsible=0;recursiveResize=0;outlineConnect=0;portConstraint=eastwest;newEdgeStyle={&quot;curved&quot;:0,&quot;rounded&quot;:0};participant=umlActor;" parent="1" vertex="1">
          <mxGeometry x="215" y="-2027.5" width="20" height="907.5" as="geometry" />
        </mxCell>
        <mxCell id="PES1R1bx2U_6cO4VifAW-8" value="" style="html=1;points=[[0,0,0,0,5],[0,1,0,0,-5],[1,0,0,0,5],[1,1,0,0,-5]];perimeter=orthogonalPerimeter;outlineConnect=0;targetShapes=umlLifeline;portConstraint=eastwest;newEdgeStyle={&quot;curved&quot;:0,&quot;rounded&quot;:0};" parent="PES1R1bx2U_6cO4VifAW-6" vertex="1">
          <mxGeometry x="5" y="70" width="10" height="830" as="geometry" />
        </mxCell>
        <mxCell id="PES1R1bx2U_6cO4VifAW-10" value="User" style="text;html=1;align=center;verticalAlign=middle;resizable=0;points=[];autosize=1;strokeColor=none;fillColor=none;" parent="1" vertex="1">
          <mxGeometry x="200" y="-2075" width="50" height="30" as="geometry" />
        </mxCell>
        <mxCell id="PES1R1bx2U_6cO4VifAW-14" value="System" style="shape=umlLifeline;perimeter=lifelinePerimeter;whiteSpace=wrap;html=1;container=1;dropTarget=0;collapsible=0;recursiveResize=0;outlineConnect=0;portConstraint=eastwest;newEdgeStyle={&quot;curved&quot;:0,&quot;rounded&quot;:0};size=30;" parent="1" vertex="1">
          <mxGeometry x="355" y="-2000" width="140" height="880" as="geometry" />
        </mxCell>
        <mxCell id="PES1R1bx2U_6cO4VifAW-15" value="" style="html=1;points=[[0,0,0,0,5],[0,1,0,0,-5],[1,0,0,0,5],[1,1,0,0,-5]];perimeter=orthogonalPerimeter;outlineConnect=0;targetShapes=umlLifeline;portConstraint=eastwest;newEdgeStyle={&quot;curved&quot;:0,&quot;rounded&quot;:0};" parent="PES1R1bx2U_6cO4VifAW-14" vertex="1">
          <mxGeometry x="65" y="52" width="10" height="38" as="geometry" />
        </mxCell>
        <mxCell id="B5JM20REGfs4NmhftQZL-31" style="edgeStyle=orthogonalEdgeStyle;rounded=0;orthogonalLoop=1;jettySize=auto;html=1;curved=0;dashed=1;" edge="1" parent="PES1R1bx2U_6cO4VifAW-14">
          <mxGeometry relative="1" as="geometry">
            <mxPoint x="-120" y="199.43" as="targetPoint" />
            <mxPoint x="55" y="199.45857142857147" as="sourcePoint" />
          </mxGeometry>
        </mxCell>
        <mxCell id="PES1R1bx2U_6cO4VifAW-22" value="" style="html=1;points=[[0,0,0,0,5],[0,1,0,0,-5],[1,0,0,0,5],[1,1,0,0,-5]];perimeter=orthogonalPerimeter;outlineConnect=0;targetShapes=umlLifeline;portConstraint=eastwest;newEdgeStyle={&quot;curved&quot;:0,&quot;rounded&quot;:0};" parent="PES1R1bx2U_6cO4VifAW-14" vertex="1">
          <mxGeometry x="65" y="100" width="10" height="100" as="geometry" />
        </mxCell>
        <mxCell id="PES1R1bx2U_6cO4VifAW-23" value="" style="html=1;points=[[0,0,0,0,5],[0,1,0,0,-5],[1,0,0,0,5],[1,1,0,0,-5]];perimeter=orthogonalPerimeter;outlineConnect=0;targetShapes=umlLifeline;portConstraint=eastwest;newEdgeStyle={&quot;curved&quot;:0,&quot;rounded&quot;:0};" parent="PES1R1bx2U_6cO4VifAW-14" vertex="1">
          <mxGeometry x="65" y="220" width="10" height="90" as="geometry" />
        </mxCell>
        <mxCell id="B5JM20REGfs4NmhftQZL-72" value="" style="html=1;points=[[0,0,0,0,5],[0,1,0,0,-5],[1,0,0,0,5],[1,1,0,0,-5]];perimeter=orthogonalPerimeter;outlineConnect=0;targetShapes=umlLifeline;portConstraint=eastwest;newEdgeStyle={&quot;curved&quot;:0,&quot;rounded&quot;:0};" vertex="1" parent="PES1R1bx2U_6cO4VifAW-14">
          <mxGeometry x="65" y="430" width="10" height="40" as="geometry" />
        </mxCell>
        <mxCell id="B5JM20REGfs4NmhftQZL-77" value="" style="html=1;points=[[0,0,0,0,5],[0,1,0,0,-5],[1,0,0,0,5],[1,1,0,0,-5]];perimeter=orthogonalPerimeter;outlineConnect=0;targetShapes=umlLifeline;portConstraint=eastwest;newEdgeStyle={&quot;curved&quot;:0,&quot;rounded&quot;:0};" vertex="1" parent="PES1R1bx2U_6cO4VifAW-14">
          <mxGeometry x="65" y="480" width="10" height="40" as="geometry" />
        </mxCell>
        <mxCell id="B5JM20REGfs4NmhftQZL-92" value="" style="html=1;points=[[0,0,0,0,5],[0,1,0,0,-5],[1,0,0,0,5],[1,1,0,0,-5]];perimeter=orthogonalPerimeter;outlineConnect=0;targetShapes=umlLifeline;portConstraint=eastwest;newEdgeStyle={&quot;curved&quot;:0,&quot;rounded&quot;:0};" vertex="1" parent="PES1R1bx2U_6cO4VifAW-14">
          <mxGeometry x="65" y="320" width="10" height="50" as="geometry" />
        </mxCell>
        <mxCell id="B5JM20REGfs4NmhftQZL-12" value="Data Stored" style="shape=umlLifeline;perimeter=lifelinePerimeter;whiteSpace=wrap;html=1;container=1;dropTarget=0;collapsible=0;recursiveResize=0;outlineConnect=0;portConstraint=eastwest;newEdgeStyle={&quot;curved&quot;:0,&quot;rounded&quot;:0};size=30;" vertex="1" parent="1">
          <mxGeometry x="525" y="-2000" width="140" height="870" as="geometry" />
        </mxCell>
        <mxCell id="B5JM20REGfs4NmhftQZL-13" value="" style="html=1;verticalAlign=bottom;endArrow=block;curved=0;rounded=0;exitX=1;exitY=0;exitDx=0;exitDy=5;exitPerimeter=0;fontSize=10;" edge="1" parent="1" target="PES1R1bx2U_6cO4VifAW-15">
          <mxGeometry x="-0.0588" y="77" width="80" relative="1" as="geometry">
            <mxPoint x="235" y="-1940" as="sourcePoint" />
            <mxPoint x="335" y="-1940" as="targetPoint" />
            <mxPoint as="offset" />
          </mxGeometry>
        </mxCell>
        <mxCell id="B5JM20REGfs4NmhftQZL-14" value="" style="html=1;verticalAlign=bottom;endArrow=block;curved=0;rounded=0;exitX=0;exitY=1;exitDx=0;exitDy=-5;exitPerimeter=0;fontSize=10;" edge="1" parent="1" source="PES1R1bx2U_6cO4VifAW-15">
          <mxGeometry x="-0.0588" y="77" width="80" relative="1" as="geometry">
            <mxPoint x="435" y="-1900" as="sourcePoint" />
            <mxPoint x="235" y="-1915" as="targetPoint" />
            <mxPoint as="offset" />
          </mxGeometry>
        </mxCell>
        <mxCell id="B5JM20REGfs4NmhftQZL-15" value="Login" style="text;html=1;align=center;verticalAlign=middle;resizable=0;points=[];autosize=1;strokeColor=none;fillColor=none;fontSize=8;" vertex="1" parent="1">
          <mxGeometry x="310" y="-1957" width="40" height="20" as="geometry" />
        </mxCell>
        <mxCell id="B5JM20REGfs4NmhftQZL-16" value="Logged In after User Name &amp;amp; Password == True" style="text;html=1;align=center;verticalAlign=middle;resizable=0;points=[];autosize=1;strokeColor=none;fillColor=none;fontSize=8;" vertex="1" parent="1">
          <mxGeometry x="235" y="-1937" width="190" height="20" as="geometry" />
        </mxCell>
        <mxCell id="B5JM20REGfs4NmhftQZL-18" value="" style="html=1;verticalAlign=bottom;endArrow=block;curved=0;rounded=0;exitX=1;exitY=0;exitDx=0;exitDy=5;exitPerimeter=0;fontSize=10;" edge="1" parent="1">
          <mxGeometry x="-0.0588" y="77" width="80" relative="1" as="geometry">
            <mxPoint x="235" y="-1897" as="sourcePoint" />
            <mxPoint x="420" y="-1897" as="targetPoint" />
            <mxPoint as="offset" />
          </mxGeometry>
        </mxCell>
        <mxCell id="B5JM20REGfs4NmhftQZL-20" value="Update Details" style="text;html=1;align=center;verticalAlign=middle;resizable=0;points=[];autosize=1;strokeColor=none;fillColor=none;fontSize=8;" vertex="1" parent="1">
          <mxGeometry x="285" y="-1917" width="80" height="20" as="geometry" />
        </mxCell>
        <mxCell id="B5JM20REGfs4NmhftQZL-21" value="Loop" style="shape=umlFrame;whiteSpace=wrap;html=1;pointerEvents=0;recursiveResize=0;container=1;collapsible=0;width=50;height=27;" vertex="1" parent="1">
          <mxGeometry x="415" y="-1897" width="180" height="87" as="geometry" />
        </mxCell>
        <mxCell id="B5JM20REGfs4NmhftQZL-22" value="&lt;font style=&quot;font-size: 8px;&quot;&gt;Select Account Details to Update&lt;/font&gt;" style="text;html=1;align=center;verticalAlign=middle;resizable=0;points=[];autosize=1;strokeColor=none;fillColor=none;" vertex="1" parent="B5JM20REGfs4NmhftQZL-21">
          <mxGeometry x="16" y="25" width="140" height="30" as="geometry" />
        </mxCell>
        <mxCell id="B5JM20REGfs4NmhftQZL-29" value="" style="html=1;verticalAlign=bottom;endArrow=block;curved=0;rounded=0;fontSize=10;" edge="1" parent="B5JM20REGfs4NmhftQZL-21" target="d2sTBF0pF_eeNT5ZRgnV-1">
          <mxGeometry x="-0.0588" y="77" width="80" relative="1" as="geometry">
            <mxPoint x="16" y="67" as="sourcePoint" />
            <mxPoint x="161" y="67" as="targetPoint" />
            <mxPoint as="offset" />
          </mxGeometry>
        </mxCell>
        <mxCell id="B5JM20REGfs4NmhftQZL-33" value="" style="html=1;points=[[0,0,0,0,5],[0,1,0,0,-5],[1,0,0,0,5],[1,1,0,0,-5]];perimeter=orthogonalPerimeter;outlineConnect=0;targetShapes=umlLifeline;portConstraint=eastwest;newEdgeStyle={&quot;curved&quot;:0,&quot;rounded&quot;:0};" vertex="1" parent="B5JM20REGfs4NmhftQZL-21">
          <mxGeometry x="6" y="37" width="10" height="18" as="geometry" />
        </mxCell>
        <mxCell id="B5JM20REGfs4NmhftQZL-34" style="edgeStyle=orthogonalEdgeStyle;rounded=0;orthogonalLoop=1;jettySize=auto;html=1;curved=0;entryX=-0.016;entryY=0.91;entryDx=0;entryDy=0;entryPerimeter=0;" edge="1" parent="B5JM20REGfs4NmhftQZL-21" source="B5JM20REGfs4NmhftQZL-33" target="B5JM20REGfs4NmhftQZL-22">
          <mxGeometry relative="1" as="geometry">
            <Array as="points">
              <mxPoint x="36" y="46" />
              <mxPoint x="36" y="52" />
              <mxPoint x="14" y="52" />
            </Array>
          </mxGeometry>
        </mxCell>
        <mxCell id="B5JM20REGfs4NmhftQZL-35" value="Display Updated Details" style="text;html=1;align=center;verticalAlign=middle;resizable=0;points=[];autosize=1;strokeColor=none;fillColor=none;fontSize=7;" vertex="1" parent="B5JM20REGfs4NmhftQZL-21">
          <mxGeometry x="36" y="50" width="100" height="20" as="geometry" />
        </mxCell>
        <mxCell id="B5JM20REGfs4NmhftQZL-37" style="edgeStyle=orthogonalEdgeStyle;rounded=0;orthogonalLoop=1;jettySize=auto;html=1;curved=0;dashed=1;" edge="1" parent="B5JM20REGfs4NmhftQZL-21" source="d2sTBF0pF_eeNT5ZRgnV-1">
          <mxGeometry relative="1" as="geometry">
            <mxPoint x="160" y="77" as="sourcePoint" />
            <mxPoint x="16" y="77" as="targetPoint" />
            <Array as="points">
              <mxPoint x="94" y="77" />
              <mxPoint x="16" y="78" />
            </Array>
          </mxGeometry>
        </mxCell>
        <mxCell id="B5JM20REGfs4NmhftQZL-32" value="Return Update Details" style="text;html=1;align=center;verticalAlign=middle;resizable=0;points=[];autosize=1;strokeColor=none;fillColor=none;fontSize=8;" vertex="1" parent="1">
          <mxGeometry x="265" y="-1817" width="100" height="20" as="geometry" />
        </mxCell>
        <mxCell id="B5JM20REGfs4NmhftQZL-41" style="edgeStyle=orthogonalEdgeStyle;rounded=0;orthogonalLoop=1;jettySize=auto;html=1;curved=0;entryX=0;entryY=0;entryDx=0;entryDy=5;entryPerimeter=0;" edge="1" parent="1" source="PES1R1bx2U_6cO4VifAW-8" target="PES1R1bx2U_6cO4VifAW-23">
          <mxGeometry relative="1" as="geometry">
            <Array as="points">
              <mxPoint x="285" y="-1775" />
              <mxPoint x="285" y="-1775" />
            </Array>
          </mxGeometry>
        </mxCell>
        <mxCell id="B5JM20REGfs4NmhftQZL-42" value="View Follow List" style="text;html=1;align=center;verticalAlign=middle;resizable=0;points=[];autosize=1;strokeColor=none;fillColor=none;fontSize=8;" vertex="1" parent="1">
          <mxGeometry x="280" y="-1777" width="80" height="20" as="geometry" />
        </mxCell>
        <mxCell id="B5JM20REGfs4NmhftQZL-43" value="Loop" style="shape=umlFrame;whiteSpace=wrap;html=1;pointerEvents=0;recursiveResize=0;container=1;collapsible=0;width=50;height=27;" vertex="1" parent="1">
          <mxGeometry x="425" y="-1787" width="180" height="87" as="geometry" />
        </mxCell>
        <mxCell id="B5JM20REGfs4NmhftQZL-44" value="&lt;font style=&quot;font-size: 8px;&quot;&gt;Search Stored Data&lt;/font&gt;" style="text;html=1;align=center;verticalAlign=middle;resizable=0;points=[];autosize=1;strokeColor=none;fillColor=none;" vertex="1" parent="B5JM20REGfs4NmhftQZL-43">
          <mxGeometry x="45" y="7" width="90" height="30" as="geometry" />
        </mxCell>
        <mxCell id="B5JM20REGfs4NmhftQZL-45" value="" style="html=1;verticalAlign=bottom;endArrow=block;curved=0;rounded=0;fontSize=10;entryX=0;entryY=0.189;entryDx=0;entryDy=0;entryPerimeter=0;" edge="1" parent="B5JM20REGfs4NmhftQZL-43" target="B5JM20REGfs4NmhftQZL-36">
          <mxGeometry x="-0.0588" y="77" width="80" relative="1" as="geometry">
            <mxPoint x="6" y="57" as="sourcePoint" />
            <mxPoint x="151" y="57" as="targetPoint" />
            <mxPoint as="offset" />
          </mxGeometry>
        </mxCell>
        <mxCell id="B5JM20REGfs4NmhftQZL-46" value="" style="html=1;points=[[0,0,0,0,5],[0,1,0,0,-5],[1,0,0,0,5],[1,1,0,0,-5]];perimeter=orthogonalPerimeter;outlineConnect=0;targetShapes=umlLifeline;portConstraint=eastwest;newEdgeStyle={&quot;curved&quot;:0,&quot;rounded&quot;:0};" vertex="1" parent="B5JM20REGfs4NmhftQZL-43">
          <mxGeometry x="6" y="37" width="10" height="18" as="geometry" />
        </mxCell>
        <mxCell id="B5JM20REGfs4NmhftQZL-48" value="Display Following list" style="text;html=1;align=center;verticalAlign=middle;resizable=0;points=[];autosize=1;strokeColor=none;fillColor=none;fontSize=7;" vertex="1" parent="B5JM20REGfs4NmhftQZL-43">
          <mxGeometry x="45" y="37" width="90" height="20" as="geometry" />
        </mxCell>
        <mxCell id="B5JM20REGfs4NmhftQZL-49" style="edgeStyle=orthogonalEdgeStyle;rounded=0;orthogonalLoop=1;jettySize=auto;html=1;curved=0;dashed=1;" edge="1" parent="B5JM20REGfs4NmhftQZL-43">
          <mxGeometry relative="1" as="geometry">
            <mxPoint x="160" y="77" as="sourcePoint" />
            <mxPoint x="16" y="77" as="targetPoint" />
            <Array as="points" />
          </mxGeometry>
        </mxCell>
        <mxCell id="B5JM20REGfs4NmhftQZL-36" value="" style="html=1;points=[[0,0,0,0,5],[0,1,0,0,-5],[1,0,0,0,5],[1,1,0,0,-5]];perimeter=orthogonalPerimeter;outlineConnect=0;targetShapes=umlLifeline;portConstraint=eastwest;newEdgeStyle={&quot;curved&quot;:0,&quot;rounded&quot;:0};" vertex="1" parent="B5JM20REGfs4NmhftQZL-43">
          <mxGeometry x="160" y="50" width="10" height="37" as="geometry" />
        </mxCell>
        <mxCell id="B5JM20REGfs4NmhftQZL-70" style="edgeStyle=orthogonalEdgeStyle;rounded=0;orthogonalLoop=1;jettySize=auto;html=1;curved=0;" edge="1" parent="B5JM20REGfs4NmhftQZL-43" source="B5JM20REGfs4NmhftQZL-46" target="B5JM20REGfs4NmhftQZL-46">
          <mxGeometry relative="1" as="geometry" />
        </mxCell>
        <mxCell id="B5JM20REGfs4NmhftQZL-55" value="Return Followers List" style="text;html=1;align=center;verticalAlign=middle;resizable=0;points=[];autosize=1;strokeColor=none;fillColor=none;fontSize=9;" vertex="1" parent="1">
          <mxGeometry x="270" y="-1730" width="110" height="20" as="geometry" />
        </mxCell>
        <mxCell id="B5JM20REGfs4NmhftQZL-57" style="edgeStyle=orthogonalEdgeStyle;rounded=0;orthogonalLoop=1;jettySize=auto;html=1;curved=0;" edge="1" parent="1" source="PES1R1bx2U_6cO4VifAW-8">
          <mxGeometry relative="1" as="geometry">
            <mxPoint x="235" y="-1669.9767441860463" as="sourcePoint" />
            <mxPoint x="420" y="-1670" as="targetPoint" />
            <Array as="points">
              <mxPoint x="420" y="-1670" />
            </Array>
          </mxGeometry>
        </mxCell>
        <mxCell id="B5JM20REGfs4NmhftQZL-58" value="Follow User" style="text;html=1;align=center;verticalAlign=middle;resizable=0;points=[];autosize=1;strokeColor=none;fillColor=none;fontSize=8;" vertex="1" parent="1">
          <mxGeometry x="280" y="-1675" width="70" height="20" as="geometry" />
        </mxCell>
        <mxCell id="B5JM20REGfs4NmhftQZL-59" style="edgeStyle=orthogonalEdgeStyle;rounded=0;orthogonalLoop=1;jettySize=auto;html=1;curved=0;" edge="1" parent="1" target="PES1R1bx2U_6cO4VifAW-8">
          <mxGeometry relative="1" as="geometry">
            <mxPoint x="415" y="-1640" as="sourcePoint" />
            <Array as="points">
              <mxPoint x="375" y="-1640" />
              <mxPoint x="375" y="-1640" />
            </Array>
          </mxGeometry>
        </mxCell>
        <mxCell id="B5JM20REGfs4NmhftQZL-60" value="Following User" style="text;html=1;align=center;verticalAlign=middle;resizable=0;points=[];autosize=1;strokeColor=none;fillColor=none;fontSize=8;" vertex="1" parent="1">
          <mxGeometry x="280" y="-1640" width="80" height="20" as="geometry" />
        </mxCell>
        <mxCell id="B5JM20REGfs4NmhftQZL-66" style="edgeStyle=orthogonalEdgeStyle;rounded=0;orthogonalLoop=1;jettySize=auto;html=1;curved=0;" edge="1" parent="1" source="B5JM20REGfs4NmhftQZL-54">
          <mxGeometry relative="1" as="geometry">
            <mxPoint x="230" y="-1605" as="sourcePoint" />
            <mxPoint x="420" y="-1605" as="targetPoint" />
            <Array as="points">
              <mxPoint x="420" y="-1605" />
            </Array>
          </mxGeometry>
        </mxCell>
        <mxCell id="B5JM20REGfs4NmhftQZL-67" value="Unfollow User" style="text;html=1;align=center;verticalAlign=middle;resizable=0;points=[];autosize=1;strokeColor=none;fillColor=none;fontSize=8;" vertex="1" parent="1">
          <mxGeometry x="285" y="-1610" width="70" height="20" as="geometry" />
        </mxCell>
        <mxCell id="B5JM20REGfs4NmhftQZL-68" value="Unfollowing User" style="text;html=1;align=center;verticalAlign=middle;resizable=0;points=[];autosize=1;strokeColor=none;fillColor=none;fontSize=8;" vertex="1" parent="1">
          <mxGeometry x="280" y="-1590" width="80" height="20" as="geometry" />
        </mxCell>
        <mxCell id="B5JM20REGfs4NmhftQZL-69" style="edgeStyle=orthogonalEdgeStyle;rounded=0;orthogonalLoop=1;jettySize=auto;html=1;curved=0;" edge="1" parent="1">
          <mxGeometry relative="1" as="geometry">
            <mxPoint x="420" y="-1590" as="sourcePoint" />
            <mxPoint x="230" y="-1590" as="targetPoint" />
            <Array as="points">
              <mxPoint x="375" y="-1590" />
              <mxPoint x="375" y="-1590" />
            </Array>
          </mxGeometry>
        </mxCell>
        <mxCell id="B5JM20REGfs4NmhftQZL-52" style="edgeStyle=orthogonalEdgeStyle;rounded=0;orthogonalLoop=1;jettySize=auto;html=1;curved=0;dashed=1;" edge="1" parent="1">
          <mxGeometry relative="1" as="geometry">
            <mxPoint x="242.5" y="-1700" as="targetPoint" />
            <mxPoint x="417.5" y="-1699.9714285714285" as="sourcePoint" />
          </mxGeometry>
        </mxCell>
        <mxCell id="B5JM20REGfs4NmhftQZL-71" value="" style="edgeStyle=orthogonalEdgeStyle;rounded=0;orthogonalLoop=1;jettySize=auto;html=1;curved=0;" edge="1" parent="1" target="B5JM20REGfs4NmhftQZL-54">
          <mxGeometry relative="1" as="geometry">
            <mxPoint x="230" y="-1605" as="sourcePoint" />
            <mxPoint x="420" y="-1605" as="targetPoint" />
            <Array as="points">
              <mxPoint x="230" y="-1604" />
            </Array>
          </mxGeometry>
        </mxCell>
        <mxCell id="B5JM20REGfs4NmhftQZL-54" value="" style="html=1;points=[[0,0,0,0,5],[0,1,0,0,-5],[1,0,0,0,5],[1,1,0,0,-5]];perimeter=orthogonalPerimeter;outlineConnect=0;targetShapes=umlLifeline;portConstraint=eastwest;newEdgeStyle={&quot;curved&quot;:0,&quot;rounded&quot;:0};" vertex="1" parent="1">
          <mxGeometry x="420" y="-1620" width="10" height="40" as="geometry" />
        </mxCell>
        <mxCell id="B5JM20REGfs4NmhftQZL-73" value="" style="edgeStyle=orthogonalEdgeStyle;rounded=0;orthogonalLoop=1;jettySize=auto;html=1;curved=0;" edge="1" parent="1">
          <mxGeometry relative="1" as="geometry">
            <mxPoint x="230" y="-1565" as="sourcePoint" />
            <mxPoint x="420" y="-1564" as="targetPoint" />
            <Array as="points">
              <mxPoint x="230" y="-1564" />
            </Array>
          </mxGeometry>
        </mxCell>
        <mxCell id="B5JM20REGfs4NmhftQZL-74" style="edgeStyle=orthogonalEdgeStyle;rounded=0;orthogonalLoop=1;jettySize=auto;html=1;curved=0;" edge="1" parent="1">
          <mxGeometry relative="1" as="geometry">
            <mxPoint x="420" y="-1550" as="sourcePoint" />
            <mxPoint x="230" y="-1550" as="targetPoint" />
            <Array as="points">
              <mxPoint x="375" y="-1550" />
              <mxPoint x="375" y="-1550" />
            </Array>
          </mxGeometry>
        </mxCell>
        <mxCell id="B5JM20REGfs4NmhftQZL-75" value="Create Post" style="text;html=1;align=center;verticalAlign=middle;resizable=0;points=[];autosize=1;strokeColor=none;fillColor=none;fontSize=8;" vertex="1" parent="1">
          <mxGeometry x="285" y="-1570" width="70" height="20" as="geometry" />
        </mxCell>
        <mxCell id="B5JM20REGfs4NmhftQZL-76" value="Post Created" style="text;html=1;align=center;verticalAlign=middle;resizable=0;points=[];autosize=1;strokeColor=none;fillColor=none;fontSize=8;" vertex="1" parent="1">
          <mxGeometry x="285" y="-1550" width="70" height="20" as="geometry" />
        </mxCell>
        <mxCell id="B5JM20REGfs4NmhftQZL-88" value="" style="edgeStyle=orthogonalEdgeStyle;rounded=0;orthogonalLoop=1;jettySize=auto;html=1;curved=0;" edge="1" parent="1">
          <mxGeometry relative="1" as="geometry">
            <mxPoint x="230" y="-1515" as="sourcePoint" />
            <mxPoint x="420" y="-1514" as="targetPoint" />
            <Array as="points">
              <mxPoint x="230" y="-1514" />
            </Array>
          </mxGeometry>
        </mxCell>
        <mxCell id="B5JM20REGfs4NmhftQZL-89" value="Post Deleted" style="text;html=1;align=center;verticalAlign=middle;resizable=0;points=[];autosize=1;strokeColor=none;fillColor=none;fontSize=8;" vertex="1" parent="1">
          <mxGeometry x="285" y="-1500" width="70" height="20" as="geometry" />
        </mxCell>
        <mxCell id="B5JM20REGfs4NmhftQZL-90" value="Delete Post" style="text;html=1;align=center;verticalAlign=middle;resizable=0;points=[];autosize=1;strokeColor=none;fillColor=none;fontSize=8;" vertex="1" parent="1">
          <mxGeometry x="290" y="-1520" width="60" height="20" as="geometry" />
        </mxCell>
        <mxCell id="B5JM20REGfs4NmhftQZL-91" style="edgeStyle=orthogonalEdgeStyle;rounded=0;orthogonalLoop=1;jettySize=auto;html=1;curved=0;" edge="1" parent="1">
          <mxGeometry relative="1" as="geometry">
            <mxPoint x="420" y="-1500" as="sourcePoint" />
            <mxPoint x="230" y="-1500" as="targetPoint" />
            <Array as="points">
              <mxPoint x="375" y="-1500" />
              <mxPoint x="375" y="-1500" />
            </Array>
          </mxGeometry>
        </mxCell>
        <mxCell id="B5JM20REGfs4NmhftQZL-93" value="" style="html=1;points=[[0,0,0,0,5],[0,1,0,0,-5],[1,0,0,0,5],[1,1,0,0,-5]];perimeter=orthogonalPerimeter;outlineConnect=0;targetShapes=umlLifeline;portConstraint=eastwest;newEdgeStyle={&quot;curved&quot;:0,&quot;rounded&quot;:0};" vertex="1" parent="1">
          <mxGeometry x="420" y="-1460" width="10" height="40" as="geometry" />
        </mxCell>
        <mxCell id="B5JM20REGfs4NmhftQZL-94" value="Post Forwarded" style="text;html=1;align=center;verticalAlign=middle;resizable=0;points=[];autosize=1;strokeColor=none;fillColor=none;fontSize=8;" vertex="1" parent="1">
          <mxGeometry x="280" y="-1420" width="80" height="20" as="geometry" />
        </mxCell>
        <mxCell id="B5JM20REGfs4NmhftQZL-95" value="Forward Post" style="text;html=1;align=center;verticalAlign=middle;resizable=0;points=[];autosize=1;strokeColor=none;fillColor=none;fontSize=8;" vertex="1" parent="1">
          <mxGeometry x="285" y="-1450" width="70" height="20" as="geometry" />
        </mxCell>
        <mxCell id="B5JM20REGfs4NmhftQZL-96" value="" style="edgeStyle=orthogonalEdgeStyle;rounded=0;orthogonalLoop=1;jettySize=auto;html=1;curved=0;" edge="1" parent="1">
          <mxGeometry relative="1" as="geometry">
            <mxPoint x="230" y="-1455" as="sourcePoint" />
            <mxPoint x="420" y="-1454" as="targetPoint" />
            <Array as="points">
              <mxPoint x="230" y="-1454" />
            </Array>
          </mxGeometry>
        </mxCell>
        <mxCell id="B5JM20REGfs4NmhftQZL-97" style="edgeStyle=orthogonalEdgeStyle;rounded=0;orthogonalLoop=1;jettySize=auto;html=1;curved=0;" edge="1" parent="1">
          <mxGeometry relative="1" as="geometry">
            <mxPoint x="420" y="-1420.23" as="sourcePoint" />
            <mxPoint x="230" y="-1420.23" as="targetPoint" />
            <Array as="points">
              <mxPoint x="375" y="-1420.23" />
              <mxPoint x="375" y="-1420.23" />
            </Array>
          </mxGeometry>
        </mxCell>
        <mxCell id="B5JM20REGfs4NmhftQZL-98" value="" style="html=1;points=[[0,0,0,0,5],[0,1,0,0,-5],[1,0,0,0,5],[1,1,0,0,-5]];perimeter=orthogonalPerimeter;outlineConnect=0;targetShapes=umlLifeline;portConstraint=eastwest;newEdgeStyle={&quot;curved&quot;:0,&quot;rounded&quot;:0};" vertex="1" parent="1">
          <mxGeometry x="420" y="-1390" width="10" height="40" as="geometry" />
        </mxCell>
        <mxCell id="B5JM20REGfs4NmhftQZL-99" style="edgeStyle=orthogonalEdgeStyle;rounded=0;orthogonalLoop=1;jettySize=auto;html=1;curved=0;" edge="1" parent="1">
          <mxGeometry relative="1" as="geometry">
            <mxPoint x="420" y="-1350.23" as="sourcePoint" />
            <mxPoint x="230" y="-1350.23" as="targetPoint" />
            <Array as="points">
              <mxPoint x="375" y="-1350.23" />
              <mxPoint x="375" y="-1350.23" />
            </Array>
          </mxGeometry>
        </mxCell>
        <mxCell id="B5JM20REGfs4NmhftQZL-100" value="Liked Post" style="text;html=1;align=center;verticalAlign=middle;resizable=0;points=[];autosize=1;strokeColor=none;fillColor=none;fontSize=8;" vertex="1" parent="1">
          <mxGeometry x="290" y="-1350" width="60" height="20" as="geometry" />
        </mxCell>
        <mxCell id="B5JM20REGfs4NmhftQZL-101" value="Like Post" style="text;html=1;align=center;verticalAlign=middle;resizable=0;points=[];autosize=1;strokeColor=none;fillColor=none;fontSize=8;" vertex="1" parent="1">
          <mxGeometry x="290" y="-1380" width="60" height="20" as="geometry" />
        </mxCell>
        <mxCell id="B5JM20REGfs4NmhftQZL-102" value="" style="edgeStyle=orthogonalEdgeStyle;rounded=0;orthogonalLoop=1;jettySize=auto;html=1;curved=0;" edge="1" parent="1">
          <mxGeometry relative="1" as="geometry">
            <mxPoint x="230" y="-1385" as="sourcePoint" />
            <mxPoint x="420" y="-1384" as="targetPoint" />
            <Array as="points">
              <mxPoint x="230" y="-1384" />
            </Array>
          </mxGeometry>
        </mxCell>
        <mxCell id="B5JM20REGfs4NmhftQZL-103" value="" style="edgeStyle=orthogonalEdgeStyle;rounded=0;orthogonalLoop=1;jettySize=auto;html=1;curved=0;" edge="1" parent="1">
          <mxGeometry relative="1" as="geometry">
            <mxPoint x="230" y="-1325" as="sourcePoint" />
            <mxPoint x="420" y="-1324" as="targetPoint" />
            <Array as="points">
              <mxPoint x="230" y="-1324" />
            </Array>
          </mxGeometry>
        </mxCell>
        <mxCell id="B5JM20REGfs4NmhftQZL-104" value="" style="html=1;points=[[0,0,0,0,5],[0,1,0,0,-5],[1,0,0,0,5],[1,1,0,0,-5]];perimeter=orthogonalPerimeter;outlineConnect=0;targetShapes=umlLifeline;portConstraint=eastwest;newEdgeStyle={&quot;curved&quot;:0,&quot;rounded&quot;:0};" vertex="1" parent="1">
          <mxGeometry x="420" y="-1330" width="10" height="40" as="geometry" />
        </mxCell>
        <mxCell id="B5JM20REGfs4NmhftQZL-105" style="edgeStyle=orthogonalEdgeStyle;rounded=0;orthogonalLoop=1;jettySize=auto;html=1;curved=0;" edge="1" parent="1">
          <mxGeometry relative="1" as="geometry">
            <mxPoint x="420" y="-1290.23" as="sourcePoint" />
            <mxPoint x="230" y="-1290.23" as="targetPoint" />
            <Array as="points">
              <mxPoint x="375" y="-1290.23" />
              <mxPoint x="375" y="-1290.23" />
            </Array>
          </mxGeometry>
        </mxCell>
        <mxCell id="B5JM20REGfs4NmhftQZL-106" value="Comment on Post" style="text;html=1;align=center;verticalAlign=middle;resizable=0;points=[];autosize=1;strokeColor=none;fillColor=none;fontSize=8;" vertex="1" parent="1">
          <mxGeometry x="275" y="-1320" width="90" height="20" as="geometry" />
        </mxCell>
        <mxCell id="B5JM20REGfs4NmhftQZL-107" value="Commented" style="text;html=1;align=center;verticalAlign=middle;resizable=0;points=[];autosize=1;strokeColor=none;fillColor=none;fontSize=8;" vertex="1" parent="1">
          <mxGeometry x="285" y="-1290" width="70" height="20" as="geometry" />
        </mxCell>
        <mxCell id="B5JM20REGfs4NmhftQZL-108" value="Social Media App" style="shape=umlFrame;whiteSpace=wrap;html=1;pointerEvents=0;recursiveResize=0;container=1;collapsible=0;width=160;" vertex="1" parent="1">
          <mxGeometry x="100" y="-2110" width="620" height="990" as="geometry" />
        </mxCell>
        <mxCell id="d2sTBF0pF_eeNT5ZRgnV-1" value="" style="html=1;points=[[0,0,0,0,5],[0,1,0,0,-5],[1,0,0,0,5],[1,1,0,0,-5]];perimeter=orthogonalPerimeter;outlineConnect=0;targetShapes=umlLifeline;portConstraint=eastwest;newEdgeStyle={&quot;curved&quot;:0,&quot;rounded&quot;:0};" vertex="1" parent="B5JM20REGfs4NmhftQZL-108">
          <mxGeometry x="485" y="263" width="10" height="37" as="geometry" />
        </mxCell>
      </root>
    </mxGraphModel>
  </diagram>
</mxfile>
